solid convex_hull
  facet normal -0.436648 0.499026 -0.748539
    outer loop
      vertex -8 -1 -9
      vertex -4 10 -4
      vertex -4 7 -6
    endloop
  endfacet
  facet normal -0.825913 0.50714 0.246325
    outer loop
      vertex -5 4 5
      vertex -4 10 -4
      vertex -9 -3 6
    endloop
  endfacet
  facet normal -0.243479 0.272124 0.930949
    outer loop
      vertex 2 0 8
      vertex -5 4 5
      vertex -9 -3 6
    endloop
  endfacet
  facet normal -0.986405 -0.140915 -0.084549
    outer loop
      vertex -8 -1 -9
      vertex -8 -7 1
      vertex -9 -3 6
    endloop
  endfacet
  facet normal -0.937304 0.348142 -0.0160681
    outer loop
      vertex -4 10 -4
      vertex -8 -1 -9
      vertex -9 -3 6
    endloop
  endfacet
  facet normal 0.0228874 -0.274649 0.961272
    outer loop
      vertex 8 -3 7
      vertex 2 0 8
      vertex 8 -10 5
    endloop
  endfacet
  facet normal -0.286131 -0.775322 0.563032
    outer loop
      vertex -9 -3 6
      vertex -8 -7 1
      vertex 8 -10 5
    endloop
  endfacet
  facet normal -0.0808081 -0.330579 0.940313
    outer loop
      vertex 2 0 8
      vertex -9 -3 6
      vertex 8 -10 5
    endloop
  endfacet
  facet normal -0.346844 0.520266 -0.780399
    outer loop
      vertex -4 7 -6
      vertex -4 10 -4
      vertex 2 8 -8
    endloop
  endfacet
  facet normal -0.348463 0.476844 -0.806966
    outer loop
      vertex -8 -1 -9
      vertex -4 7 -6
      vertex 2 8 -8
    endloop
  endfacet
  facet normal -0.214002 0.823582 0.525277
    outer loop
      vertex -4 10 -4
      vertex -5 4 5
      vertex 9 7 6
    endloop
  endfacet
  facet normal -0.151914 0.409 0.8998
    outer loop
      vertex -5 4 5
      vertex 2 0 8
      vertex 9 7 6
    endloop
  endfacet
  facet normal 0.201484 0.0774938 0.976422
    outer loop
      vertex 2 0 8
      vertex 8 -3 7
      vertex 9 7 6
    endloop
  endfacet
  facet normal 0.965518 -0.0715199 0.250319
    outer loop
      vertex 8 -3 7
      vertex 8 -10 5
      vertex 9 7 6
    endloop
  endfacet
  facet normal 0 0.894427 -0.447214
    outer loop
      vertex 2 8 -8
      vertex -4 10 -4
      vertex 10 10 -4
    endloop
  endfacet
  facet normal 0.408248 0.163299 -0.898146
    outer loop
      vertex 5 -5 -9
      vertex 2 8 -8
      vertex 10 10 -4
    endloop
  endfacet
  facet normal 0 0.957826 0.287348
    outer loop
      vertex -4 10 -4
      vertex 9 7 6
      vertex 10 10 -4
    endloop
  endfacet
  facet normal 0.923545 -0.252946 -0.28824
    outer loop
      vertex 8 -10 5
      vertex 5 -5 -9
      vertex 10 3 0
    endloop
  endfacet
  facet normal 0.975426 -0.0696733 0.20902
    outer loop
      vertex 9 7 6
      vertex 8 -10 5
      vertex 10 3 0
    endloop
  endfacet
  facet normal 0.920553 -0.193801 -0.339151
    outer loop
      vertex 5 -5 -9
      vertex 10 10 -4
      vertex 10 3 0
    endloop
  endfacet
  facet normal 0.990477 0.0683087 0.11954
    outer loop
      vertex 10 10 -4
      vertex 9 7 6
      vertex 10 3 0
    endloop
  endfacet
  facet normal -0.72528 -0.590344 -0.354207
    outer loop
      vertex -8 -7 1
      vertex -8 -1 -9
      vertex -1 -9 -10
    endloop
  endfacet
  facet normal -0.196765 -0.979028 0.0527907
    outer loop
      vertex 8 -10 5
      vertex -8 -7 1
      vertex -1 -9 -10
    endloop
  endfacet
  facet normal 0.555787 -0.738012 -0.382673
    outer loop
      vertex 5 -5 -9
      vertex 8 -10 5
      vertex -1 -9 -10
    endloop
  endfacet
  facet normal 0.0990148 0.0990148 -0.990148
    outer loop
      vertex 2 8 -8
      vertex 5 -5 -9
      vertex -1 -9 -10
    endloop
  endfacet
  facet normal -0.00694394 0.118047 -0.992984
    outer loop
      vertex -8 -1 -9
      vertex 2 8 -8
      vertex -1 -9 -10
    endloop
  endfacet
endsolid convex_hull
