solid convex_hull
  facet normal 0 0 -1
    outer loop
      vertex -9 7 -10
      vertex -1 2 -10
      vertex -10 6 -10
    endloop
  endfacet
  facet normal 0 0 -1
    outer loop
      vertex -1 2 -10
      vertex -9 7 -10
      vertex -7 8 -10
    endloop
  endfacet
  facet normal 1 0 0
    outer loop
      vertex 10 2 8
      vertex 10 7 -4
      vertex 10 7 2
    endloop
  endfacet
  facet normal -1 0 0
    outer loop
      vertex -10 5 -2
      vertex -10 6 -10
      vertex -10 -6 -4
    endloop
  endfacet
  facet normal -1 0 0
    outer loop
      vertex -10 5 -2
      vertex -10 -6 -4
      vertex -10 0 0
    endloop
  endfacet
  facet normal -1 0 0
    outer loop
      vertex -10 6 -10
      vertex -10 5 -2
      vertex -10 7 10
    endloop
  endfacet
  facet normal -0.706665 0.706665 -0.0353333
    outer loop
      vertex -9 7 -10
      vertex -10 6 -10
      vertex -10 7 10
    endloop
  endfacet
  facet normal -0.541928 0.839988 -0.0270964
    outer loop
      vertex -8 8 1
      vertex -9 7 -10
      vertex -10 7 10
    endloop
  endfacet
  facet normal -1 0 0
    outer loop
      vertex -10 5 -2
      vertex -10 0 0
      vertex -10 7 10
    endloop
  endfacet
  facet normal -1 0 0
    outer loop
      vertex -10 0 0
      vertex -10 -6 -4
      vertex -10 7 10
    endloop
  endfacet
  facet normal 0 0 1
    outer loop
      vertex -9 -3 10
      vertex -5 -1 10
      vertex -10 7 10
    endloop
  endfacet
  facet normal 0.0496292 0.893325 0.446663
    outer loop
      vertex 7 7 9
      vertex -2 10 4
      vertex -2 7 10
    endloop
  endfacet
  facet normal 0 0.894427 0.447214
    outer loop
      vertex -2 10 4
      vertex -10 7 10
      vertex -2 7 10
    endloop
  endfacet
  facet normal 0 0 1
    outer loop
      vertex -10 7 10
      vertex -5 -1 10
      vertex -2 7 10
    endloop
  endfacet
  facet normal 1 0 0
    outer loop
      vertex 10 2 8
      vertex 10 7 2
      vertex 10 6 9
    endloop
  endfacet
  facet normal 0.104828 0.314485 0.943456
    outer loop
      vertex 7 7 9
      vertex -2 7 10
      vertex 10 6 9
    endloop
  endfacet
  facet normal 0 0 1
    outer loop
      vertex -5 -1 10
      vertex -9 -3 10
      vertex 5 -10 10
    endloop
  endfacet
  facet normal 0 0 1
    outer loop
      vertex -2 7 10
      vertex -5 -1 10
      vertex 5 -10 10
    endloop
  endfacet
  facet normal 0 0 -1
    outer loop
      vertex -10 6 -10
      vertex -1 2 -10
      vertex -9 -9 -10
    endloop
  endfacet
  facet normal -0.989071 -0.065938 -0.131876
    outer loop
      vertex -10 -6 -4
      vertex -10 6 -10
      vertex -9 -9 -10
    endloop
  endfacet
  facet normal -0.169641 -0.983045 0.0695961
    outer loop
      vertex 5 -10 10
      vertex -7 -8 9
      vertex -9 -9 -10
    endloop
  endfacet
  facet normal 1 0 0
    outer loop
      vertex 10 7 -4
      vertex 10 2 8
      vertex 10 3 0
    endloop
  endfacet
  facet normal 0.888889 -0.111111 0.444444
    outer loop
      vertex 10 2 8
      vertex 10 6 9
      vertex 8 -6 10
    endloop
  endfacet
  facet normal 0 0 1
    outer loop
      vertex -2 7 10
      vertex 5 -10 10
      vertex 8 -6 10
    endloop
  endfacet
  facet normal 0.101274 0.253185 0.962102
    outer loop
      vertex 10 6 9
      vertex -2 7 10
      vertex 3 5 10
    endloop
  endfacet
  facet normal 0.132713 0.0603242 0.989317
    outer loop
      vertex 8 -6 10
      vertex 10 6 9
      vertex 3 5 10
    endloop
  endfacet
  facet normal 0 0 1
    outer loop
      vertex -2 7 10
      vertex 8 -6 10
      vertex 3 5 10
    endloop
  endfacet
  facet normal -0.446767 0.893534 -0.0446767
    outer loop
      vertex -7 8 -10
      vertex -9 7 -10
      vertex -4 10 0
    endloop
  endfacet
  facet normal -0.454755 0.889738 -0.0395439
    outer loop
      vertex -9 7 -10
      vertex -8 8 1
      vertex -4 10 0
    endloop
  endfacet
  facet normal 0.0917288 0.970796 -0.221678
    outer loop
      vertex 6 7 -9
      vertex -7 8 -10
      vertex -4 10 0
    endloop
  endfacet
  facet normal -0.447214 0.894427 0
    outer loop
      vertex -8 8 1
      vertex -10 7 10
      vertex -4 10 0
    endloop
  endfacet
  facet normal -0.26087 0.956522 0.130435
    outer loop
      vertex -10 7 10
      vertex -2 10 4
      vertex -4 10 0
    endloop
  endfacet
  facet normal 0.235702 -0.612826 -0.754247
    outer loop
      vertex 0 -8 -8
      vertex -9 -9 -10
      vertex 2 -6 -9
    endloop
  endfacet
  facet normal 0 0 -1
    outer loop
      vertex -1 2 -10
      vertex -7 8 -10
      vertex 7 3 -10
    endloop
  endfacet
  facet normal 0.0941221 0.263542 -0.960045
    outer loop
      vertex -7 8 -10
      vertex 6 7 -9
      vertex 7 3 -10
    endloop
  endfacet
  facet normal 0 0 -1
    outer loop
      vertex -9 -9 -10
      vertex -1 2 -10
      vertex 7 3 -10
    endloop
  endfacet
  facet normal 0.138972 -0.185296 -0.972806
    outer loop
      vertex 2 -6 -9
      vertex -9 -9 -10
      vertex 7 3 -10
    endloop
  endfacet
  facet normal 0.692636 0.461757 -0.554109
    outer loop
      vertex 6 7 -9
      vertex 10 7 -4
      vertex 10 1 -9
    endloop
  endfacet
  facet normal 1 0 0
    outer loop
      vertex 10 3 0
      vertex 10 2 8
      vertex 10 1 -9
    endloop
  endfacet
  facet normal 1 0 0
    outer loop
      vertex 10 7 -4
      vertex 10 3 0
      vertex 10 1 -9
    endloop
  endfacet
  facet normal 0.486664 0.324443 -0.811107
    outer loop
      vertex 7 3 -10
      vertex 6 7 -9
      vertex 10 1 -9
    endloop
  endfacet
  facet normal 0.181834 -0.20781 -0.96112
    outer loop
      vertex 2 -6 -9
      vertex 7 3 -10
      vertex 10 1 -9
    endloop
  endfacet
  facet normal 0.141703 0.940391 0.30917
    outer loop
      vertex -2 10 4
      vertex 7 7 9
      vertex 9 9 2
    endloop
  endfacet
  facet normal 0.894427 0.447214 0
    outer loop
      vertex 10 7 2
      vertex 10 7 -4
      vertex 9 9 2
    endloop
  endfacet
  facet normal 0.31544 0.914776 -0.252352
    outer loop
      vertex 10 7 -4
      vertex 6 7 -9
      vertex 9 9 2
    endloop
  endfacet
  facet normal 0.297402 0.892205 0.339887
    outer loop
      vertex 7 7 9
      vertex 10 6 9
      vertex 9 9 2
    endloop
  endfacet
  facet normal 0.892607 0.446304 0.0637577
    outer loop
      vertex 10 6 9
      vertex 10 7 2
      vertex 9 9 2
    endloop
  endfacet
  facet normal 0.082974 0.995688 -0.041487
    outer loop
      vertex -4 10 0
      vertex -2 10 4
      vertex 9 9 2
    endloop
  endfacet
  facet normal 0.106506 0.972757 -0.205912
    outer loop
      vertex 6 7 -9
      vertex -4 10 0
      vertex 9 9 2
    endloop
  endfacet
  facet normal 0 0 1
    outer loop
      vertex -9 -3 10
      vertex -10 7 10
      vertex -9 -6 10
    endloop
  endfacet
  facet normal -0.994536 -0.0765027 0.0710383
    outer loop
      vertex -10 7 10
      vertex -10 -6 -4
      vertex -9 -6 10
    endloop
  endfacet
  facet normal 0 0 1
    outer loop
      vertex 5 -10 10
      vertex -9 -3 10
      vertex -9 -6 10
    endloop
  endfacet
  facet normal -0.16169 -0.565916 0.808452
    outer loop
      vertex -7 -8 9
      vertex 5 -10 10
      vertex -9 -6 10
    endloop
  endfacet
  facet normal -0.900989 -0.429042 0.0643563
    outer loop
      vertex -10 -6 -4
      vertex -9 -9 -10
      vertex -9 -6 10
    endloop
  endfacet
  facet normal -0.674962 -0.729689 0.109453
    outer loop
      vertex -9 -9 -10
      vertex -7 -8 9
      vertex -9 -6 10
    endloop
  endfacet
  facet normal 0.190789 -0.890348 -0.413376
    outer loop
      vertex -9 -9 -10
      vertex 0 -8 -8
      vertex 8 -10 0
    endloop
  endfacet
  facet normal -0.049932 -0.99864 -0.0149796
    outer loop
      vertex 5 -10 10
      vertex -9 -9 -10
      vertex 8 -10 0
    endloop
  endfacet
  facet normal 0.971324 -0.220755 0.0883022
    outer loop
      vertex 10 2 8
      vertex 8 -6 10
      vertex 8 -10 0
    endloop
  endfacet
  facet normal 0.77791 -0.583432 0.233373
    outer loop
      vertex 8 -6 10
      vertex 5 -10 10
      vertex 8 -10 0
    endloop
  endfacet
  facet normal 0.408944 -0.701047 -0.584206
    outer loop
      vertex 0 -8 -8
      vertex 2 -6 -9
      vertex 8 -10 0
    endloop
  endfacet
  facet normal 0.985236 -0.170908 0.0100534
    outer loop
      vertex 10 1 -9
      vertex 10 2 8
      vertex 8 -10 0
    endloop
  endfacet
  facet normal 0.520875 -0.595285 -0.611821
    outer loop
      vertex 2 -6 -9
      vertex 10 1 -9
      vertex 8 -10 0
    endloop
  endfacet
endsolid convex_hull
