solid convex_hull
  facet normal 0.465549 -0.0290968 -0.884544
    outer loop
      vertex 8 -8 -4
      vertex -1 0 -9
      vertex 9 8 -4
    endloop
  endfacet
  facet normal 0.984525 -0.0615328 -0.164087
    outer loop
      vertex 10 -8 8
      vertex 8 -8 -4
      vertex 9 8 -4
    endloop
  endfacet
  facet normal 0.544125 0.816188 0.194331
    outer loop
      vertex 9 8 -4
      vertex 1 10 10
      vertex 10 4 10
    endloop
  endfacet
  facet normal 0.99762 0.0113366 -0.0680195
    outer loop
      vertex 10 -8 8
      vertex 9 8 -4
      vertex 10 4 10
    endloop
  endfacet
  facet normal 0.0665149 -0.997724 -0.0110858
    outer loop
      vertex 8 -8 -4
      vertex 10 -8 8
      vertex -6 -9 2
    endloop
  endfacet
  facet normal -0.547862 0.156532 0.821794
    outer loop
      vertex 1 10 10
      vertex -5 10 6
      vertex -1 3 10
    endloop
  endfacet
  facet normal -0.636543 0.0748875 0.767596
    outer loop
      vertex -5 10 6
      vertex -8 5 4
      vertex -1 3 10
    endloop
  endfacet
  facet normal 0 0 1
    outer loop
      vertex 10 4 10
      vertex 1 10 10
      vertex -1 3 10
    endloop
  endfacet
  facet normal 0.0149437 -0.164381 0.986284
    outer loop
      vertex 10 -8 8
      vertex 10 4 10
      vertex -1 3 10
    endloop
  endfacet
  facet normal -0.669904 -0.197926 0.715579
    outer loop
      vertex -8 5 4
      vertex -6 -9 2
      vertex -1 3 10
    endloop
  endfacet
  facet normal 0.0369548 0.997778 -0.0554321
    outer loop
      vertex -5 10 6
      vertex 1 10 10
      vertex 1 9 -8
    endloop
  endfacet
  facet normal -0.170529 0.146168 -0.974451
    outer loop
      vertex -1 0 -9
      vertex -5 2 -8
      vertex 1 9 -8
    endloop
  endfacet
  facet normal 0.150798 0.987043 -0.0548357
    outer loop
      vertex 1 10 10
      vertex 9 8 -4
      vertex 1 9 -8
    endloop
  endfacet
  facet normal 0.447214 0 -0.894427
    outer loop
      vertex 9 8 -4
      vertex -1 0 -9
      vertex 1 9 -8
    endloop
  endfacet
  facet normal -0.86994 0.416058 0.264764
    outer loop
      vertex -8 5 4
      vertex -5 10 6
      vertex -10 4 -1
    endloop
  endfacet
  facet normal -0.679851 0.415464 -0.604312
    outer loop
      vertex -5 2 -8
      vertex -8 0 -6
      vertex -10 4 -1
    endloop
  endfacet
  facet normal -0.542388 0.788928 -0.288804
    outer loop
      vertex -5 10 6
      vertex 1 9 -8
      vertex -10 4 -1
    endloop
  endfacet
  facet normal -0.613748 0.52607 -0.588697
    outer loop
      vertex 1 9 -8
      vertex -5 2 -8
      vertex -10 4 -1
    endloop
  endfacet
  facet normal 0 -0.986394 0.164399
    outer loop
      vertex -6 -9 2
      vertex 10 -8 8
      vertex 5 -8 8
    endloop
  endfacet
  facet normal 0 -0.178885 0.98387
    outer loop
      vertex 10 -8 8
      vertex -1 3 10
      vertex 5 -8 8
    endloop
  endfacet
  facet normal -0.416702 -0.377636 0.826892
    outer loop
      vertex -1 3 10
      vertex -6 -9 2
      vertex 5 -8 8
    endloop
  endfacet
  facet normal 0.0717103 -0.469377 -0.880081
    outer loop
      vertex -1 0 -9
      vertex 8 -8 -4
      vertex -10 -7 -6
    endloop
  endfacet
  facet normal -0.271423 -0.0626361 -0.96042
    outer loop
      vertex -5 2 -8
      vertex -1 0 -9
      vertex -10 -7 -6
    endloop
  endfacet
  facet normal -0.625474 0.178707 -0.759504
    outer loop
      vertex -8 0 -6
      vertex -5 2 -8
      vertex -10 -7 -6
    endloop
  endfacet
  facet normal -0.896669 -0.185518 0.401955
    outer loop
      vertex -6 -9 2
      vertex -8 5 4
      vertex -10 -7 -6
    endloop
  endfacet
  facet normal -0.0286182 -0.973018 -0.228946
    outer loop
      vertex 8 -8 -4
      vertex -6 -9 2
      vertex -10 -7 -6
    endloop
  endfacet
  facet normal -0.900353 -0.180071 0.396155
    outer loop
      vertex -8 5 4
      vertex -10 4 -1
      vertex -10 -7 -6
    endloop
  endfacet
  facet normal -0.822903 0.235115 -0.517253
    outer loop
      vertex -10 4 -1
      vertex -8 0 -6
      vertex -10 -7 -6
    endloop
  endfacet
endsolid convex_hull
