solid convex_hull
  facet normal -0.649797 -0.524836 -0.549828
    outer loop
      vertex -8 0 -7
      vertex -5 -10 -1
      vertex -9 -4 -2
    endloop
  endfacet
  facet normal -0.639366 -0.527477 -0.559445
    outer loop
      vertex -5 -10 -1
      vertex -8 0 -7
      vertex -3 -5 -8
    endloop
  endfacet
  facet normal -0.826034 -0.560523 -0.0590024
    outer loop
      vertex -9 -4 -2
      vertex -5 -10 -1
      vertex -8 -6 3
    endloop
  endfacet
  facet normal -0.894427 -0.447214 0
    outer loop
      vertex -10 -2 2
      vertex -9 -4 -2
      vertex -8 -6 3
    endloop
  endfacet
  facet normal 0 1 0
    outer loop
      vertex 1 10 9
      vertex 9 10 -5
      vertex -9 10 10
    endloop
  endfacet
  facet normal 0 0 1
    outer loop
      vertex 4 6 10
      vertex 7 6 10
      vertex -9 10 10
    endloop
  endfacet
  facet normal 0.09245 0.3698 0.9245
    outer loop
      vertex 7 6 10
      vertex 1 10 9
      vertex -9 10 10
    endloop
  endfacet
  facet normal -0.959754 -0.0959754 0.263932
    outer loop
      vertex -10 -2 2
      vertex -9 -1 6
      vertex -9 10 10
    endloop
  endfacet
  facet normal -0.964268 -0.0761264 -0.253755
    outer loop
      vertex -8 0 -7
      vertex -9 -4 -2
      vertex -8 10 -10
    endloop
  endfacet
  facet normal -0.974755 -0.054153 -0.216612
    outer loop
      vertex -9 -4 -2
      vertex -10 -2 2
      vertex -8 10 -10
    endloop
  endfacet
  facet normal -0.95673 0.287019 -0.0478365
    outer loop
      vertex -9 8 -2
      vertex -9 10 10
      vertex -8 10 -10
    endloop
  endfacet
  facet normal 0 1 0
    outer loop
      vertex -9 10 10
      vertex 9 10 -5
      vertex -8 10 -10
    endloop
  endfacet
  facet normal -0.460739 -0.293198 -0.837708
    outer loop
      vertex -3 -5 -8
      vertex -8 0 -7
      vertex 0 -4 -10
    endloop
  endfacet
  facet normal -0.449256 -0.256718 -0.855725
    outer loop
      vertex -8 0 -7
      vertex -8 10 -10
      vertex 0 -4 -10
    endloop
  endfacet
  facet normal -0.993228 0.114603 -0.0191005
    outer loop
      vertex -9 10 10
      vertex -9 8 -2
      vertex -10 0 2
    endloop
  endfacet
  facet normal -0.992278 0 0.124035
    outer loop
      vertex -10 -2 2
      vertex -9 10 10
      vertex -10 0 2
    endloop
  endfacet
  facet normal -0.991811 0.0708436 -0.106265
    outer loop
      vertex -9 8 -2
      vertex -8 10 -10
      vertex -10 0 2
    endloop
  endfacet
  facet normal -0.986394 0 -0.164399
    outer loop
      vertex -8 10 -10
      vertex -10 -2 2
      vertex -10 0 2
    endloop
  endfacet
  facet normal -0.304855 -0.731653 -0.609711
    outer loop
      vertex -5 -10 -1
      vertex -3 -5 -8
      vertex 3 -10 -5
    endloop
  endfacet
  facet normal 0 -1 0
    outer loop
      vertex 4 -10 9
      vertex -5 -10 -1
      vertex 3 -10 -5
    endloop
  endfacet
  facet normal 0.411409 -0.910977 -0.0293864
    outer loop
      vertex 6 -9 6
      vertex 4 -10 9
      vertex 3 -10 -5
    endloop
  endfacet
  facet normal 0.854965 0.142494 -0.498729
    outer loop
      vertex 9 10 -5
      vertex 8 2 -9
      vertex 8 9 -7
    endloop
  endfacet
  facet normal 0.147122 0.85331 -0.500216
    outer loop
      vertex -8 10 -10
      vertex 9 10 -5
      vertex 8 9 -7
    endloop
  endfacet
  facet normal 0 -1 0
    outer loop
      vertex -5 -10 -1
      vertex 4 -10 9
      vertex -5 -10 3
    endloop
  endfacet
  facet normal 0.899188 -0.071935 0.43161
    outer loop
      vertex 9 7 6
      vertex 7 6 10
      vertex 9 1 5
    endloop
  endfacet
  facet normal 0.832153 -0.188621 0.521482
    outer loop
      vertex 7 6 10
      vertex 4 -10 9
      vertex 9 1 5
    endloop
  endfacet
  facet normal 0.844581 -0.203864 0.495099
    outer loop
      vertex 4 -10 9
      vertex 6 -9 6
      vertex 9 1 5
    endloop
  endfacet
  facet normal 0.956353 -0.277859 0.0904658
    outer loop
      vertex 6 -9 6
      vertex 8 -7 -9
      vertex 9 1 5
    endloop
  endfacet
  facet normal 0.142384 0.162724 -0.976344
    outer loop
      vertex 8 2 -9
      vertex -8 10 -10
      vertex 0 9 -9
    endloop
  endfacet
  facet normal 0.233723 0.267112 -0.934893
    outer loop
      vertex 8 9 -7
      vertex 8 2 -9
      vertex 0 9 -9
    endloop
  endfacet
  facet normal 0.174078 0.696311 -0.696311
    outer loop
      vertex -8 10 -10
      vertex 8 9 -7
      vertex 0 9 -9
    endloop
  endfacet
  facet normal 0 0 1
    outer loop
      vertex 7 6 10
      vertex 4 6 10
      vertex -5 -10 10
    endloop
  endfacet
  facet normal -0.91454 -0.274362 0.297225
    outer loop
      vertex -9 -1 6
      vertex -10 -2 2
      vertex -5 -10 10
    endloop
  endfacet
  facet normal -0.898807 -0.411953 0.149801
    outer loop
      vertex -10 -2 2
      vertex -8 -6 3
      vertex -5 -10 10
    endloop
  endfacet
  facet normal 0 0 1
    outer loop
      vertex 4 6 10
      vertex -9 10 10
      vertex -5 -10 10
    endloop
  endfacet
  facet normal -0.863064 -0.172613 0.474685
    outer loop
      vertex -9 10 10
      vertex -9 -1 6
      vertex -5 -10 10
    endloop
  endfacet
  facet normal 0.110055 -0.082541 0.990492
    outer loop
      vertex 4 -10 9
      vertex 7 6 10
      vertex -5 -10 10
    endloop
  endfacet
  facet normal 0 -1 0
    outer loop
      vertex -5 -10 3
      vertex 4 -10 9
      vertex -5 -10 10
    endloop
  endfacet
  facet normal -0.822951 -0.565779 -0.0514344
    outer loop
      vertex -8 -6 3
      vertex -5 -10 -1
      vertex -6 -9 4
    endloop
  endfacet
  facet normal -0.707107 -0.707107 0
    outer loop
      vertex -5 -10 -1
      vertex -5 -10 3
      vertex -6 -9 4
    endloop
  endfacet
  facet normal -0.838548 -0.54259 0.0493264
    outer loop
      vertex -5 -10 10
      vertex -8 -6 3
      vertex -6 -9 4
    endloop
  endfacet
  facet normal -0.707107 -0.707107 0
    outer loop
      vertex -5 -10 3
      vertex -5 -10 10
      vertex -6 -9 4
    endloop
  endfacet
  facet normal 0 1 0
    outer loop
      vertex 9 10 -5
      vertex 1 10 9
      vertex 8 10 7
    endloop
  endfacet
  facet normal 0.872503 0.134231 0.469809
    outer loop
      vertex 7 6 10
      vertex 9 7 6
      vertex 8 10 7
    endloop
  endfacet
  facet normal 0.230079 0.546437 0.805276
    outer loop
      vertex 1 10 9
      vertex 7 6 10
      vertex 8 10 7
    endloop
  endfacet
  facet normal 0.123091 0.123091 -0.984732
    outer loop
      vertex -8 10 -10
      vertex 8 2 -9
      vertex -7 9 -10
    endloop
  endfacet
  facet normal 0 0 -1
    outer loop
      vertex 0 -4 -10
      vertex -8 10 -10
      vertex -7 9 -10
    endloop
  endfacet
  facet normal 0.951479 0.0339814 -0.305832
    outer loop
      vertex 8 2 -9
      vertex 9 10 -5
      vertex 8 -7 -10
    endloop
  endfacet
  facet normal -0.248922 -0.663792 -0.705279
    outer loop
      vertex -3 -5 -8
      vertex 0 -4 -10
      vertex 8 -7 -10
    endloop
  endfacet
  facet normal -0.248969 -0.700225 -0.669104
    outer loop
      vertex 3 -10 -5
      vertex -3 -5 -8
      vertex 8 -7 -10
    endloop
  endfacet
  facet normal 0.476491 -0.877747 -0.050157
    outer loop
      vertex 6 -9 6
      vertex 3 -10 -5
      vertex 8 -7 -10
    endloop
  endfacet
  facet normal 0.707107 -0.707107 0
    outer loop
      vertex 8 -7 -9
      vertex 6 -9 6
      vertex 8 -7 -10
    endloop
  endfacet
  facet normal 0.116985 0.109673 -0.987059
    outer loop
      vertex -7 9 -10
      vertex 8 2 -9
      vertex 8 -7 -10
    endloop
  endfacet
  facet normal 0 0 -1
    outer loop
      vertex 0 -4 -10
      vertex -7 9 -10
      vertex 8 -7 -10
    endloop
  endfacet
  facet normal 0.971653 -0.0388661 0.233197
    outer loop
      vertex 9 7 6
      vertex 9 1 5
      vertex 10 8 2
    endloop
  endfacet
  facet normal 0.990398 -0.138006 0.00811802
    outer loop
      vertex 9 1 5
      vertex 8 -7 -9
      vertex 10 8 2
    endloop
  endfacet
  facet normal 0.933346 0.215387 0.287183
    outer loop
      vertex 8 10 7
      vertex 9 7 6
      vertex 10 8 2
    endloop
  endfacet
  facet normal 0.782378 0.619382 0.0651981
    outer loop
      vertex 9 10 -5
      vertex 8 10 7
      vertex 10 8 2
    endloop
  endfacet
  facet normal 0.98921 -0.0153366 -0.145698
    outer loop
      vertex 8 -7 -10
      vertex 9 10 -5
      vertex 10 8 2
    endloop
  endfacet
  facet normal 0.991228 -0.132164 0
    outer loop
      vertex 8 -7 -9
      vertex 8 -7 -10
      vertex 10 8 2
    endloop
  endfacet
endsolid convex_hull
