solid convex_hull
  facet normal 0 0 -1
    outer loop
      vertex 2 4 -10
      vertex -3 -3 -10
      vertex -4 10 -10
    endloop
  endfacet
  facet normal -1 0 0
    outer loop
      vertex -10 0 9
      vertex -10 -4 3
      vertex -10 -6 10
    endloop
  endfacet
  facet normal 0 0 -1
    outer loop
      vertex -3 -3 -10
      vertex 2 4 -10
      vertex -4 -10 -10
    endloop
  endfacet
  facet normal 0 0 -1
    outer loop
      vertex -4 10 -10
      vertex -3 -3 -10
      vertex -4 -10 -10
    endloop
  endfacet
  facet normal 1 0 0
    outer loop
      vertex 10 -2 -5
      vertex 10 3 -1
      vertex 10 -7 8
    endloop
  endfacet
  facet normal 0.684126 -0.63526 -0.358352
    outer loop
      vertex 10 -2 -5
      vertex 6 -8 -2
      vertex 1 -10 -8
    endloop
  endfacet
  facet normal 0 0 -1
    outer loop
      vertex -4 10 -10
      vertex -4 -10 -10
      vertex -9 2 -10
    endloop
  endfacet
  facet normal -1 0 0
    outer loop
      vertex -10 -4 3
      vertex -10 0 9
      vertex -10 6 -4
    endloop
  endfacet
  facet normal -0.760088 0.475055 -0.443384
    outer loop
      vertex -4 10 -10
      vertex -9 2 -10
      vertex -10 6 -4
    endloop
  endfacet
  facet normal 0.702247 -0.632022 -0.327715
    outer loop
      vertex 6 -8 -2
      vertex 10 -2 -5
      vertex 7 -10 4
    endloop
  endfacet
  facet normal 0.816067 -0.539434 -0.207475
    outer loop
      vertex 10 -2 -5
      vertex 10 -7 8
      vertex 7 -10 4
    endloop
  endfacet
  facet normal 0.666667 -0.666667 -0.333333
    outer loop
      vertex 1 -10 -8
      vertex 6 -8 -2
      vertex 7 -10 4
    endloop
  endfacet
  facet normal 0 -1 0
    outer loop
      vertex -4 -10 -10
      vertex 1 -10 -8
      vertex 7 -10 4
    endloop
  endfacet
  facet normal 0.11931 -0.83517 0.536895
    outer loop
      vertex 7 -10 4
      vertex 10 -7 8
      vertex 3 -8 8
    endloop
  endfacet
  facet normal 0.0780274 -0.858302 0.507178
    outer loop
      vertex -8 -9 8
      vertex 7 -10 4
      vertex 3 -8 8
    endloop
  endfacet
  facet normal -0.121046 -0.605228 0.786796
    outer loop
      vertex -10 -6 10
      vertex -8 -9 8
      vertex -5 -7 10
    endloop
  endfacet
  facet normal 0.0970143 -0.6791 0.727607
    outer loop
      vertex 3 -8 8
      vertex 10 -7 8
      vertex -5 -7 10
    endloop
  endfacet
  facet normal 0.0686398 -0.755038 0.652078
    outer loop
      vertex -8 -9 8
      vertex 3 -8 8
      vertex -5 -7 10
    endloop
  endfacet
  facet normal 0 0 1
    outer loop
      vertex -10 -6 10
      vertex -5 -7 10
      vertex 3 -3 10
    endloop
  endfacet
  facet normal 0.127775 -0.255551 0.958315
    outer loop
      vertex -5 -7 10
      vertex 10 -7 8
      vertex 3 -3 10
    endloop
  endfacet
  facet normal 0.970756 0.194151 0.141201
    outer loop
      vertex 10 3 -1
      vertex 9 8 -1
      vertex 9 0 10
    endloop
  endfacet
  facet normal 0 0 1
    outer loop
      vertex -10 -6 10
      vertex 3 -3 10
      vertex 9 0 10
    endloop
  endfacet
  facet normal 0.127775 -0.255551 0.958315
    outer loop
      vertex 3 -3 10
      vertex 10 -7 8
      vertex 9 0 10
    endloop
  endfacet
  facet normal -0.0909542 0.163718 0.982305
    outer loop
      vertex -10 0 9
      vertex -10 -6 10
      vertex -1 5 9
    endloop
  endfacet
  facet normal -0.0383938 0.12158 0.991839
    outer loop
      vertex -10 -6 10
      vertex 9 0 10
      vertex -1 5 9
    endloop
  endfacet
  facet normal 1 0 0
    outer loop
      vertex 10 3 -1
      vertex 10 -2 -5
      vertex 10 0 -6
    endloop
  endfacet
  facet normal 0.973862 0.194772 -0.116863
    outer loop
      vertex 9 8 -1
      vertex 10 3 -1
      vertex 10 0 -6
    endloop
  endfacet
  facet normal 0.571072 -0.367118 -0.734235
    outer loop
      vertex 10 -2 -5
      vertex 1 -10 -8
      vertex 10 0 -6
    endloop
  endfacet
  facet normal 0.526316 -0.315789 -0.789474
    outer loop
      vertex 10 0 -6
      vertex 1 -10 -8
      vertex 4 -5 -8
    endloop
  endfacet
  facet normal 0.350857 0.935617 -0.0389841
    outer loop
      vertex 9 8 -1
      vertex 6 9 -4
      vertex 4 10 2
    endloop
  endfacet
  facet normal 0.16342 0.980522 -0.108947
    outer loop
      vertex 6 9 -4
      vertex -4 10 -10
      vertex 4 10 2
    endloop
  endfacet
  facet normal 0 0 -1
    outer loop
      vertex -4 -10 -10
      vertex 2 4 -10
      vertex 1 -3 -10
    endloop
  endfacet
  facet normal 0.358974 -0.25641 -0.897436
    outer loop
      vertex 1 -10 -8
      vertex -4 -10 -10
      vertex 1 -3 -10
    endloop
  endfacet
  facet normal 0.422116 -0.0603023 -0.904534
    outer loop
      vertex 2 4 -10
      vertex 10 0 -6
      vertex 1 -3 -10
    endloop
  endfacet
  facet normal 0.416305 -0.249783 -0.874241
    outer loop
      vertex 4 -5 -8
      vertex 1 -10 -8
      vertex 1 -3 -10
    endloop
  endfacet
  facet normal 0.451613 -0.193548 -0.870968
    outer loop
      vertex 10 0 -6
      vertex 4 -5 -8
      vertex 1 -3 -10
    endloop
  endfacet
  facet normal 0.408248 0.408248 -0.816497
    outer loop
      vertex 2 4 -10
      vertex -4 10 -10
      vertex 6 8 -6
    endloop
  endfacet
  facet normal 0.597614 0.717137 -0.358569
    outer loop
      vertex 6 9 -4
      vertex 9 8 -1
      vertex 6 8 -6
    endloop
  endfacet
  facet normal 0.336861 0.842152 -0.421076
    outer loop
      vertex -4 10 -10
      vertex 6 9 -4
      vertex 6 8 -6
    endloop
  endfacet
  facet normal 0.78811 0.394055 -0.472866
    outer loop
      vertex 9 8 -1
      vertex 10 0 -6
      vertex 6 8 -6
    endloop
  endfacet
  facet normal 0.534522 0.267261 -0.801784
    outer loop
      vertex 10 0 -6
      vertex 2 4 -10
      vertex 6 8 -6
    endloop
  endfacet
  facet normal 1 0 0
    outer loop
      vertex 10 -7 8
      vertex 10 3 -1
      vertex 10 -4 8
    endloop
  endfacet
  facet normal 0.974972 0.175495 0.136496
    outer loop
      vertex 10 3 -1
      vertex 9 0 10
      vertex 10 -4 8
    endloop
  endfacet
  facet normal 0.894427 0 0.447214
    outer loop
      vertex 9 0 10
      vertex 10 -7 8
      vertex 10 -4 8
    endloop
  endfacet
  facet normal -0.976519 -0.20714 -0.059183
    outer loop
      vertex -10 -6 10
      vertex -10 -4 3
      vertex -9 -5 -10
    endloop
  endfacet
  facet normal -0.850593 -0.521331 -0.0685962
    outer loop
      vertex -8 -9 8
      vertex -10 -6 10
      vertex -9 -5 -10
    endloop
  endfacet
  facet normal -0.702247 -0.702247 -0.117041
    outer loop
      vertex -4 -10 -10
      vertex -8 -9 8
      vertex -9 -5 -10
    endloop
  endfacet
  facet normal 0 0 -1
    outer loop
      vertex -9 2 -10
      vertex -4 -10 -10
      vertex -9 -5 -10
    endloop
  endfacet
  facet normal -0.996054 -0.0508933 -0.0727047
    outer loop
      vertex -10 -4 3
      vertex -10 6 -4
      vertex -9 -5 -10
    endloop
  endfacet
  facet normal -0.986394 0 -0.164399
    outer loop
      vertex -10 6 -4
      vertex -9 2 -10
      vertex -9 -5 -10
    endloop
  endfacet
  facet normal -0.702247 -0.702247 -0.117041
    outer loop
      vertex -8 -9 8
      vertex -4 -10 -10
      vertex -6 -10 2
    endloop
  endfacet
  facet normal 0 -1 0
    outer loop
      vertex -4 -10 -10
      vertex 7 -10 4
      vertex -6 -10 2
    endloop
  endfacet
  facet normal -0.0240824 -0.987379 0.156536
    outer loop
      vertex 7 -10 4
      vertex -8 -9 8
      vertex -6 -10 2
    endloop
  endfacet
  facet normal -0.675352 0.70912 -0.202606
    outer loop
      vertex -4 10 -10
      vertex -10 6 -4
      vertex -7 10 0
    endloop
  endfacet
  facet normal 0 1 0
    outer loop
      vertex 4 10 2
      vertex -4 10 -10
      vertex -7 10 0
    endloop
  endfacet
  facet normal -0.967746 0.22874 0.105572
    outer loop
      vertex -10 6 -4
      vertex -10 0 9
      vertex -9 7 3
    endloop
  endfacet
  facet normal -0.815553 0.577684 0.0339814
    outer loop
      vertex -7 10 0
      vertex -10 6 -4
      vertex -9 7 3
    endloop
  endfacet
  facet normal -0.283322 0.509979 0.812189
    outer loop
      vertex -10 0 9
      vertex -1 5 9
      vertex -6 7 6
    endloop
  endfacet
  facet normal -0.0279182 0.809626 0.586281
    outer loop
      vertex -1 5 9
      vertex 2 8 5
      vertex -6 7 6
    endloop
  endfacet
  facet normal -0.0383201 0.843042 0.536481
    outer loop
      vertex 2 8 5
      vertex 4 10 2
      vertex -6 7 6
    endloop
  endfacet
  facet normal -0.0830375 0.885734 0.456706
    outer loop
      vertex 4 10 2
      vertex -7 10 0
      vertex -6 7 6
    endloop
  endfacet
  facet normal -0.57735 0.57735 0.57735
    outer loop
      vertex -9 7 3
      vertex -10 0 9
      vertex -6 7 6
    endloop
  endfacet
  facet normal -0.457496 0.762493 0.457496
    outer loop
      vertex -7 10 0
      vertex -9 7 3
      vertex -6 7 6
    endloop
  endfacet
  facet normal 0.935459 0.285835 0.20788
    outer loop
      vertex 9 0 10
      vertex 9 8 -1
      vertex 8 4 9
    endloop
  endfacet
  facet normal 0.0276606 0.248946 0.968122
    outer loop
      vertex -1 5 9
      vertex 9 0 10
      vertex 8 4 9
    endloop
  endfacet
  facet normal 0.524872 0.770906 0.36085
    outer loop
      vertex 9 8 -1
      vertex 4 10 2
      vertex 8 4 9
    endloop
  endfacet
  facet normal 0.0850487 0.765438 0.637865
    outer loop
      vertex 2 8 5
      vertex -1 5 9
      vertex 8 4 9
    endloop
  endfacet
  facet normal 0.121046 0.786796 0.605228
    outer loop
      vertex 4 10 2
      vertex 2 8 5
      vertex 8 4 9
    endloop
  endfacet
endsolid convex_hull
