solid convex_hull
  facet normal 0 1 0
    outer loop
      vertex -6 10 9
      vertex 5 10 5
      vertex -1 10 4
    endloop
  endfacet
  facet normal -0.449158 -0.233562 -0.862384
    outer loop
      vertex -9 -5 -7
      vertex -10 8 -10
      vertex -5 -9 -8
    endloop
  endfacet
  facet normal -0.934929 0.295241 0.196827
    outer loop
      vertex -10 0 5
      vertex -6 10 9
      vertex -10 4 -1
    endloop
  endfacet
  facet normal -0.922278 0.353213 0.156984
    outer loop
      vertex -6 10 9
      vertex -10 8 -10
      vertex -10 4 -1
    endloop
  endfacet
  facet normal -1 0 0
    outer loop
      vertex -10 8 -10
      vertex -10 0 5
      vertex -10 4 -1
    endloop
  endfacet
  facet normal 0.072911 -0.680502 0.72911
    outer loop
      vertex 0 -10 7
      vertex 8 -7 9
      vertex -10 -10 8
    endloop
  endfacet
  facet normal -0.858783 0.14722 0.490733
    outer loop
      vertex -6 10 9
      vertex -10 0 5
      vertex -10 -10 8
    endloop
  endfacet
  facet normal -1 0 0
    outer loop
      vertex -10 0 5
      vertex -10 8 -10
      vertex -10 -10 8
    endloop
  endfacet
  facet normal -0.990148 -0.0990148 -0.0990148
    outer loop
      vertex -10 8 -10
      vertex -9 -5 -7
      vertex -10 -10 8
    endloop
  endfacet
  facet normal -0.714243 -0.648313 -0.26372
    outer loop
      vertex -9 -5 -7
      vertex -5 -9 -8
      vertex -10 -10 8
    endloop
  endfacet
  facet normal 0 -1 0
    outer loop
      vertex 0 -10 7
      vertex -10 -10 8
      vertex -6 -10 0
    endloop
  endfacet
  facet normal -0.312348 -0.937043 -0.156174
    outer loop
      vertex -10 -10 8
      vertex -5 -9 -8
      vertex -6 -10 0
    endloop
  endfacet
  facet normal 0.150566 -0.401508 -0.903394
    outer loop
      vertex -5 -9 -8
      vertex 7 0 -10
      vertex 9 -6 -7
    endloop
  endfacet
  facet normal 0.22486 -0.374766 -0.899438
    outer loop
      vertex 7 0 -10
      vertex 10 -3 -8
      vertex 9 -6 -7
    endloop
  endfacet
  facet normal 0.318396 -0.93843 0.134061
    outer loop
      vertex 8 -7 9
      vertex 0 -10 7
      vertex 8 -9 -5
    endloop
  endfacet
  facet normal 0.182088 -0.586727 -0.789047
    outer loop
      vertex -5 -9 -8
      vertex 9 -6 -7
      vertex 8 -9 -5
    endloop
  endfacet
  facet normal 0.948683 -0.316228 0
    outer loop
      vertex 9 -6 -7
      vertex 10 -3 -8
      vertex 8 -9 -5
    endloop
  endfacet
  facet normal 0 0 1
    outer loop
      vertex -6 10 9
      vertex 8 -7 9
      vertex 8 1 9
    endloop
  endfacet
  facet normal 0.823411 0.435924 0.36327
    outer loop
      vertex 8 6 3
      vertex 5 10 5
      vertex 8 1 9
    endloop
  endfacet
  facet normal 0 1 0
    outer loop
      vertex -6 10 9
      vertex -1 10 4
      vertex -5 10 4
    endloop
  endfacet
  facet normal -0.248069 0.967471 -0.0496139
    outer loop
      vertex -10 8 -10
      vertex -6 10 9
      vertex -5 10 4
    endloop
  endfacet
  facet normal 0 1 0
    outer loop
      vertex -1 10 4
      vertex 5 10 5
      vertex 2 10 2
    endloop
  endfacet
  facet normal 0 1 0
    outer loop
      vertex -5 10 4
      vertex -1 10 4
      vertex 2 10 2
    endloop
  endfacet
  facet normal 0.214654 0.778121 0.590298
    outer loop
      vertex 5 10 5
      vertex -6 10 9
      vertex 4 8 8
    endloop
  endfacet
  facet normal 0.691481 0.473118 0.545906
    outer loop
      vertex 8 1 9
      vertex 5 10 5
      vertex 4 8 8
    endloop
  endfacet
  facet normal 0.140198 0.218085 0.965807
    outer loop
      vertex -6 10 9
      vertex 8 1 9
      vertex 4 8 8
    endloop
  endfacet
  facet normal 0 -1 0
    outer loop
      vertex 0 -10 7
      vertex -6 -10 0
      vertex 1 -10 -3
    endloop
  endfacet
  facet normal -0.0560283 -0.989833 -0.130733
    outer loop
      vertex -6 -10 0
      vertex -5 -9 -8
      vertex 1 -10 -3
    endloop
  endfacet
  facet normal 0.145479 -0.989254 0.0145479
    outer loop
      vertex 8 -9 -5
      vertex 0 -10 7
      vertex 1 -10 -3
    endloop
  endfacet
  facet normal 0.0614038 -0.961992 -0.266083
    outer loop
      vertex -5 -9 -8
      vertex 8 -9 -5
      vertex 1 -10 -3
    endloop
  endfacet
  facet normal 0.947717 -0.315906 0.0451294
    outer loop
      vertex 8 -7 9
      vertex 8 -9 -5
      vertex 10 -2 2
    endloop
  endfacet
  facet normal 0.952688 -0.302441 0.0302441
    outer loop
      vertex 8 -9 -5
      vertex 10 -3 -8
      vertex 10 -2 2
    endloop
  endfacet
  facet normal 0.961524 0 0.274721
    outer loop
      vertex 8 1 9
      vertex 8 -7 9
      vertex 10 -2 2
    endloop
  endfacet
  facet normal 0 0 -1
    outer loop
      vertex -10 8 -10
      vertex 7 0 -10
      vertex -3 2 -10
    endloop
  endfacet
  facet normal -0.0345393 -0.172696 -0.984369
    outer loop
      vertex 7 0 -10
      vertex -5 -9 -8
      vertex -3 2 -10
    endloop
  endfacet
  facet normal -0.132028 -0.154032 -0.979205
    outer loop
      vertex -5 -9 -8
      vertex -10 8 -10
      vertex -3 2 -10
    endloop
  endfacet
  facet normal 0.0496588 0.105525 -0.993176
    outer loop
      vertex 7 0 -10
      vertex -10 8 -10
      vertex 10 8 -9
    endloop
  endfacet
  facet normal 0.830116 0.510841 0.223493
    outer loop
      vertex 5 10 5
      vertex 8 6 3
      vertex 10 8 -9
    endloop
  endfacet
  facet normal 0.950915 0.237729 0.198107
    outer loop
      vertex 8 6 3
      vertex 8 1 9
      vertex 10 8 -9
    endloop
  endfacet
  facet normal 0.104116 0.9891 -0.104116
    outer loop
      vertex 2 10 2
      vertex 5 10 5
      vertex 10 8 -9
    endloop
  endfacet
  facet normal 0.00863965 0.98492 -0.172793
    outer loop
      vertex -10 8 -10
      vertex 2 10 2
      vertex 10 8 -9
    endloop
  endfacet
  facet normal 1 0 0
    outer loop
      vertex 10 -2 2
      vertex 10 -3 -8
      vertex 10 8 -9
    endloop
  endfacet
  facet normal 0.960772 0.205214 0.186558
    outer loop
      vertex 8 1 9
      vertex 10 -2 2
      vertex 10 8 -9
    endloop
  endfacet
  facet normal 0.460336 -0.125546 -0.878823
    outer loop
      vertex 10 -3 -8
      vertex 7 0 -10
      vertex 10 4 -9
    endloop
  endfacet
  facet normal 0.316228 0 -0.948683
    outer loop
      vertex 7 0 -10
      vertex 10 8 -9
      vertex 10 4 -9
    endloop
  endfacet
  facet normal 1 0 0
    outer loop
      vertex 10 8 -9
      vertex 10 -3 -8
      vertex 10 4 -9
    endloop
  endfacet
  facet normal -0.0421731 0.991067 -0.126519
    outer loop
      vertex -10 8 -10
      vertex -5 10 4
      vertex 1 10 2
    endloop
  endfacet
  facet normal 0 0.986394 -0.164399
    outer loop
      vertex 2 10 2
      vertex -10 8 -10
      vertex 1 10 2
    endloop
  endfacet
  facet normal 0 1 0
    outer loop
      vertex -5 10 4
      vertex 2 10 2
      vertex 1 10 2
    endloop
  endfacet
  facet normal 0 0 1
    outer loop
      vertex 8 -7 9
      vertex -6 10 9
      vertex -4 3 9
    endloop
  endfacet
  facet normal -0.0461757 -0.0554109 0.997395
    outer loop
      vertex -10 -10 8
      vertex 8 -7 9
      vertex -4 3 9
    endloop
  endfacet
  facet normal -0.102356 -0.0292446 0.994318
    outer loop
      vertex -6 10 9
      vertex -10 -10 8
      vertex -4 3 9
    endloop
  endfacet
endsolid convex_hull
