solid convex_hull
  facet normal 0.380789 -0.911397 -0.156061
    outer loop
      vertex 10 -5 -7
      vertex 5 -10 10
      vertex 2 -8 -9
    endloop
  endfacet
  facet normal 0.162751 0.886089 -0.434003
    outer loop
      vertex 3 6 -9
      vertex 0 9 -4
      vertex 8 9 -1
    endloop
  endfacet
  facet normal -0.71177 -0.650761 0.264372
    outer loop
      vertex -10 -8 -6
      vertex -5 -9 5
      vertex -7 -6 7
    endloop
  endfacet
  facet normal 0.0880072 0.968079 -0.234686
    outer loop
      vertex 8 9 -1
      vertex 0 9 -4
      vertex -3 10 -1
    endloop
  endfacet
  facet normal 0.868505 -0.482503 0.11353
    outer loop
      vertex 5 -10 10
      vertex 10 -5 -7
      vertex 10 -1 10
    endloop
  endfacet
  facet normal 0 0 1
    outer loop
      vertex 6 -8 10
      vertex 5 -10 10
      vertex 10 -1 10
    endloop
  endfacet
  facet normal 1 0 0
    outer loop
      vertex 10 -1 10
      vertex 10 -5 -7
      vertex 10 7 8
    endloop
  endfacet
  facet normal -0.376478 -0.693511 0.614253
    outer loop
      vertex -5 -9 5
      vertex 5 -10 10
      vertex -4 -6 9
    endloop
  endfacet
  facet normal -0.0904431 0.0452216 0.994874
    outer loop
      vertex 5 -10 10
      vertex 6 -8 10
      vertex -4 -6 9
    endloop
  endfacet
  facet normal -0.407307 -0.678844 0.61096
    outer loop
      vertex -7 -6 7
      vertex -5 -9 5
      vertex -4 -6 9
    endloop
  endfacet
  facet normal -0.089268 0.0510103 0.994701
    outer loop
      vertex 6 -8 10
      vertex 10 -1 10
      vertex -4 -6 9
    endloop
  endfacet
  facet normal 0.30007 -0.175041 -0.93772
    outer loop
      vertex 10 -5 -7
      vertex 2 -8 -9
      vertex 9 4 -9
    endloop
  endfacet
  facet normal 0 0 -1
    outer loop
      vertex 2 -8 -9
      vertex 3 6 -9
      vertex 9 4 -9
    endloop
  endfacet
  facet normal 0.276686 0.830057 -0.4842
    outer loop
      vertex 3 6 -9
      vertex 8 9 -1
      vertex 9 4 -9
    endloop
  endfacet
  facet normal 0.992781 0.0936586 -0.0749269
    outer loop
      vertex 10 7 8
      vertex 10 -5 -7
      vertex 9 4 -9
    endloop
  endfacet
  facet normal 0.918566 0.376462 -0.120468
    outer loop
      vertex 8 9 -1
      vertex 10 7 8
      vertex 9 4 -9
    endloop
  endfacet
  facet normal 0 0 -1
    outer loop
      vertex 3 6 -9
      vertex 2 -8 -9
      vertex -10 1 -9
    endloop
  endfacet
  facet normal -0.283688 0.737589 -0.612767
    outer loop
      vertex 0 9 -4
      vertex 3 6 -9
      vertex -10 1 -9
    endloop
  endfacet
  facet normal -1 0 0
    outer loop
      vertex -10 -8 -6
      vertex -10 3 -4
      vertex -10 1 -9
    endloop
  endfacet
  facet normal -0.941184 0.313728 -0.125491
    outer loop
      vertex -10 3 -4
      vertex -9 8 1
      vertex -10 1 -9
    endloop
  endfacet
  facet normal -0.418511 0.763167 -0.492366
    outer loop
      vertex -9 8 1
      vertex -3 10 -1
      vertex -10 1 -9
    endloop
  endfacet
  facet normal -0.319249 0.756116 -0.571287
    outer loop
      vertex -3 10 -1
      vertex 0 9 -4
      vertex -10 1 -9
    endloop
  endfacet
  facet normal 0.0905126 0.995638 0.0226281
    outer loop
      vertex 8 9 -1
      vertex -3 10 -1
      vertex 7 9 3
    endloop
  endfacet
  facet normal 0.707107 0.707107 0
    outer loop
      vertex 10 7 8
      vertex 8 9 -1
      vertex 9 8 9
    endloop
  endfacet
  facet normal 0.771517 0.154303 0.617213
    outer loop
      vertex 10 -1 10
      vertex 10 7 8
      vertex 9 8 9
    endloop
  endfacet
  facet normal -0.105752 0.0981978 0.989532
    outer loop
      vertex -4 -6 9
      vertex 10 -1 10
      vertex 9 8 9
    endloop
  endfacet
  facet normal 0.274075 0.959264 0.0685189
    outer loop
      vertex 8 9 -1
      vertex 7 9 3
      vertex 9 8 9
    endloop
  endfacet
  facet normal 0.0379869 0.987658 0.151947
    outer loop
      vertex 7 9 3
      vertex -3 10 -1
      vertex 9 8 9
    endloop
  endfacet
  facet normal -0.853405 0.097532 0.512043
    outer loop
      vertex -9 8 1
      vertex -7 -6 7
      vertex -6 8 6
    endloop
  endfacet
  facet normal -0.264258 0.95133 0.158555
    outer loop
      vertex -3 10 -1
      vertex -9 8 1
      vertex -6 8 6
    endloop
  endfacet
  facet normal -0.551999 0.0985712 0.827998
    outer loop
      vertex -7 -6 7
      vertex -4 -6 9
      vertex -6 8 6
    endloop
  endfacet
  facet normal -0.0508329 0.965824 0.254164
    outer loop
      vertex 9 8 9
      vertex -3 10 -1
      vertex -6 8 6
    endloop
  endfacet
  facet normal -0.192943 0.179161 0.964715
    outer loop
      vertex -4 -6 9
      vertex 9 8 9
      vertex -6 8 6
    endloop
  endfacet
  facet normal -1 0 0
    outer loop
      vertex -10 3 -4
      vertex -10 -8 -6
      vertex -10 -4 -5
    endloop
  endfacet
  facet normal -0.973329 -0.0324443 0.22711
    outer loop
      vertex -9 8 1
      vertex -10 3 -4
      vertex -10 -4 -5
    endloop
  endfacet
  facet normal -0.970737 -0.0582442 0.232977
    outer loop
      vertex -10 -8 -6
      vertex -7 -6 7
      vertex -10 -4 -5
    endloop
  endfacet
  facet normal -0.970913 -0.0373428 0.236504
    outer loop
      vertex -7 -6 7
      vertex -9 8 1
      vertex -10 -4 -5
    endloop
  endfacet
  facet normal 0.0938417 -0.988466 -0.118866
    outer loop
      vertex 2 -8 -9
      vertex 5 -10 10
      vertex -6 -9 -7
    endloop
  endfacet
  facet normal -0.10378 -0.994563 0.00864837
    outer loop
      vertex 5 -10 10
      vertex -5 -9 5
      vertex -6 -9 -7
    endloop
  endfacet
  facet normal -0.237822 -0.971107 0.0198185
    outer loop
      vertex -5 -9 5
      vertex -10 -8 -6
      vertex -6 -9 -7
    endloop
  endfacet
  facet normal -0.201802 -0.269069 -0.941742
    outer loop
      vertex -10 1 -9
      vertex 2 -8 -9
      vertex -6 -9 -7
    endloop
  endfacet
  facet normal -0.301511 -0.301511 -0.904534
    outer loop
      vertex -10 -8 -6
      vertex -10 1 -9
      vertex -6 -9 -7
    endloop
  endfacet
endsolid convex_hull
