solid convex_hull
  facet normal -0.567755 0.3524 -0.743955
    outer loop
      vertex -10 -7 -10
      vertex -6 10 -5
      vertex -4 9 -7
    endloop
  endfacet
  facet normal -0.147052 0.235283 -0.960738
    outer loop
      vertex 6 3 -10
      vertex -10 -7 -10
      vertex -4 9 -7
    endloop
  endfacet
  facet normal -0.0717958 0.86155 -0.502571
    outer loop
      vertex -4 9 -7
      vertex -6 10 -5
      vertex 10 9 -9
    endloop
  endfacet
  facet normal -0.136895 0.250974 -0.958265
    outer loop
      vertex 6 3 -10
      vertex -4 9 -7
      vertex 10 9 -9
    endloop
  endfacet
  facet normal 0.41762 -0.128499 -0.89949
    outer loop
      vertex 10 2 -8
      vertex 6 3 -10
      vertex 10 9 -9
    endloop
  endfacet
  facet normal -0.420682 -0.902553 0.0917851
    outer loop
      vertex -8 -6 9
      vertex -10 -7 -10
      vertex -2 -9 7
    endloop
  endfacet
  facet normal -0.150769 -0.987534 -0.0452306
    outer loop
      vertex -10 -7 -10
      vertex 1 -9 -3
      vertex -2 -9 7
    endloop
  endfacet
  facet normal 1 0 0
    outer loop
      vertex 10 2 -8
      vertex 10 9 -9
      vertex 10 -8 2
    endloop
  endfacet
  facet normal 1 0 0
    outer loop
      vertex 10 -8 2
      vertex 10 9 -9
      vertex 10 0 0
    endloop
  endfacet
  facet normal 0.332406 -0.572047 -0.749846
    outer loop
      vertex -10 -7 -10
      vertex 10 2 -8
      vertex 3 -6 -5
    endloop
  endfacet
  facet normal 0.312783 -0.662365 -0.680764
    outer loop
      vertex 1 -9 -3
      vertex -10 -7 -10
      vertex 3 -6 -5
    endloop
  endfacet
  facet normal 0 -1 0
    outer loop
      vertex -2 -9 7
      vertex 1 -9 -3
      vertex 5 -9 5
    endloop
  endfacet
  facet normal 0.15162 -0.985527 -0.0758098
    outer loop
      vertex 1 -9 -3
      vertex 10 -8 2
      vertex 5 -9 5
    endloop
  endfacet
  facet normal 1 0 0
    outer loop
      vertex 10 0 0
      vertex 10 9 -9
      vertex 10 8 -4
    endloop
  endfacet
  facet normal 0.248421 -0.141955 0.958194
    outer loop
      vertex -8 -6 9
      vertex -2 -9 7
      vertex 1 3 8
    endloop
  endfacet
  facet normal 0.686143 0.176437 0.705747
    outer loop
      vertex 10 -8 2
      vertex 10 0 0
      vertex 1 3 8
    endloop
  endfacet
  facet normal 0.0340675 0.076652 0.996476
    outer loop
      vertex -8 7 8
      vertex -8 -6 9
      vertex 1 3 8
    endloop
  endfacet
  facet normal 0.271729 -0.147187 0.951052
    outer loop
      vertex -2 -9 7
      vertex 5 -9 5
      vertex 1 3 8
    endloop
  endfacet
  facet normal 0.519954 -0.0399964 0.853257
    outer loop
      vertex 5 -9 5
      vertex 10 -8 2
      vertex 1 3 8
    endloop
  endfacet
  facet normal 0.686498 0.325183 0.650366
    outer loop
      vertex 10 0 0
      vertex 10 8 -4
      vertex 1 3 8
    endloop
  endfacet
  facet normal 0.175877 0.395724 0.901371
    outer loop
      vertex -8 7 8
      vertex 1 3 8
      vertex 0 8 6
    endloop
  endfacet
  facet normal 0.650945 0.390567 0.650945
    outer loop
      vertex 1 3 8
      vertex 10 8 -4
      vertex 0 8 6
    endloop
  endfacet
  facet normal -0.929981 -0.348743 0.116248
    outer loop
      vertex -10 -7 -10
      vertex -8 -6 9
      vertex -10 -2 5
    endloop
  endfacet
  facet normal -0.978369 0.200691 0.0501728
    outer loop
      vertex -8 7 8
      vertex -8 8 4
      vertex -10 -2 5
    endloop
  endfacet
  facet normal -0.878702 0.0366126 0.475964
    outer loop
      vertex -8 -6 9
      vertex -8 7 8
      vertex -10 -2 5
    endloop
  endfacet
  facet normal 0.269191 -0.430706 -0.861411
    outer loop
      vertex -10 -7 -10
      vertex 6 3 -10
      vertex 6 1 -9
    endloop
  endfacet
  facet normal 0.317999 -0.423999 -0.847998
    outer loop
      vertex 6 3 -10
      vertex 10 2 -8
      vertex 6 1 -9
    endloop
  endfacet
  facet normal 0.33035 -0.566315 -0.755087
    outer loop
      vertex 10 2 -8
      vertex -10 -7 -10
      vertex 6 1 -9
    endloop
  endfacet
  facet normal -0.543075 0.814613 0.203653
    outer loop
      vertex -8 8 4
      vertex -8 7 8
      vertex -5 10 4
    endloop
  endfacet
  facet normal 0.0597348 0.776552 0.627215
    outer loop
      vertex -8 7 8
      vertex 0 8 6
      vertex -5 10 4
    endloop
  endfacet
  facet normal -0.83295 0.32723 -0.446223
    outer loop
      vertex -6 10 -5
      vertex -10 -7 -10
      vertex -8 9 -2
    endloop
  endfacet
  facet normal -0.979396 0.199199 0.0331999
    outer loop
      vertex -10 -2 5
      vertex -8 8 4
      vertex -8 9 -2
    endloop
  endfacet
  facet normal -0.98773 0.148159 -0.0493865
    outer loop
      vertex -10 -7 -10
      vertex -10 -2 5
      vertex -8 9 -2
    endloop
  endfacet
  facet normal -0.393543 0.918266 0.0437269
    outer loop
      vertex -5 10 4
      vertex -6 10 -5
      vertex -8 9 -2
    endloop
  endfacet
  facet normal -0.549442 0.824163 0.137361
    outer loop
      vertex -8 8 4
      vertex -5 10 4
      vertex -8 9 -2
    endloop
  endfacet
  facet normal 0 1 0
    outer loop
      vertex -6 10 -5
      vertex -5 10 4
      vertex 2 10 -5
    endloop
  endfacet
  facet normal -0.0235899 0.943596 -0.330258
    outer loop
      vertex 10 9 -9
      vertex -6 10 -5
      vertex 8 10 -6
    endloop
  endfacet
  facet normal 0.617213 0.771517 0.154303
    outer loop
      vertex 10 8 -4
      vertex 10 9 -9
      vertex 8 10 -6
    endloop
  endfacet
  facet normal 0.408248 0.816497 0.408248
    outer loop
      vertex 0 8 6
      vertex 10 8 -4
      vertex 8 10 -6
    endloop
  endfacet
  facet normal 0.241614 0.918132 0.314098
    outer loop
      vertex -5 10 4
      vertex 0 8 6
      vertex 8 10 -6
    endloop
  endfacet
  facet normal 0 1 0
    outer loop
      vertex -6 10 -5
      vertex 2 10 -5
      vertex 8 10 -6
    endloop
  endfacet
  facet normal 0 1 0
    outer loop
      vertex 2 10 -5
      vertex -5 10 4
      vertex 8 10 -6
    endloop
  endfacet
  facet normal 0.57735 -0.57735 -0.57735
    outer loop
      vertex 10 2 -8
      vertex 10 -8 2
      vertex 8 -6 -2
    endloop
  endfacet
  facet normal 0.392541 -0.729004 -0.560772
    outer loop
      vertex 10 -8 2
      vertex 1 -9 -3
      vertex 8 -6 -2
    endloop
  endfacet
  facet normal 0.407307 -0.61096 -0.678844
    outer loop
      vertex 3 -6 -5
      vertex 10 2 -8
      vertex 8 -6 -2
    endloop
  endfacet
  facet normal 0.379642 -0.674919 -0.632737
    outer loop
      vertex 1 -9 -3
      vertex 3 -6 -5
      vertex 8 -6 -2
    endloop
  endfacet
endsolid convex_hull
