solid convex_hull
  facet normal -0.131625 0.184274 0.974022
    outer loop
      vertex -5 0 9
      vertex -6 -6 10
      vertex 2 5 9
    endloop
  endfacet
  facet normal 0.0433963 -0.82453 0.564152
    outer loop
      vertex 8 -8 6
      vertex -6 -6 10
      vertex 9 -10 3
    endloop
  endfacet
  facet normal 0 -0.868243 0.496139
    outer loop
      vertex 9 -10 3
      vertex -6 -6 10
      vertex 7 -10 3
    endloop
  endfacet
  facet normal 0 -1 0
    outer loop
      vertex 8 -10 -9
      vertex 9 -10 3
      vertex 7 -10 3
    endloop
  endfacet
  facet normal 0 1 0
    outer loop
      vertex 1 10 -8
      vertex -5 10 3
      vertex 10 10 0
    endloop
  endfacet
  facet normal 0.111276 0.823443 0.55638
    outer loop
      vertex -5 10 3
      vertex 2 5 9
      vertex 10 10 0
    endloop
  endfacet
  facet normal -0.258484 -0.96344 0.0704956
    outer loop
      vertex 7 -10 3
      vertex -6 -6 10
      vertex -9 -6 -1
    endloop
  endfacet
  facet normal -0.237822 -0.971107 -0.0198185
    outer loop
      vertex 8 -10 -9
      vertex 7 -10 3
      vertex -9 -6 -1
    endloop
  endfacet
  facet normal -0.792594 0.566139 -0.226455
    outer loop
      vertex -5 10 3
      vertex -8 5 1
      vertex -9 6 7
    endloop
  endfacet
  facet normal -0.19245 0.19245 0.96225
    outer loop
      vertex -6 -6 10
      vertex -5 0 9
      vertex -9 6 7
    endloop
  endfacet
  facet normal -0.0564333 0.733632 0.677199
    outer loop
      vertex 2 5 9
      vertex -5 10 3
      vertex -9 6 7
    endloop
  endfacet
  facet normal -0.155417 0.217584 0.963588
    outer loop
      vertex -5 0 9
      vertex 2 5 9
      vertex -9 6 7
    endloop
  endfacet
  facet normal -0.950255 -0.172774 0.259161
    outer loop
      vertex -9 -6 -1
      vertex -6 -6 10
      vertex -9 6 7
    endloop
  endfacet
  facet normal -0.778761 0.571092 -0.259587
    outer loop
      vertex -8 5 1
      vertex -5 10 3
      vertex -6 5 -5
    endloop
  endfacet
  facet normal -0.639103 0.685583 -0.348602
    outer loop
      vertex -5 10 3
      vertex 1 10 -8
      vertex -6 5 -5
    endloop
  endfacet
  facet normal -0.601434 0.443162 -0.664743
    outer loop
      vertex -6 5 -5
      vertex 1 10 -8
      vertex 1 7 -10
    endloop
  endfacet
  facet normal 0.985765 -0.146691 -0.0821471
    outer loop
      vertex 9 -10 3
      vertex 8 -10 -9
      vertex 10 4 -10
    endloop
  endfacet
  facet normal 0.4159 0.779813 -0.467888
    outer loop
      vertex 1 10 -8
      vertex 10 10 0
      vertex 10 4 -10
    endloop
  endfacet
  facet normal 1 0 0
    outer loop
      vertex 10 10 0
      vertex 10 6 0
      vertex 10 4 -10
    endloop
  endfacet
  facet normal 0.0163468 -0.0735607 -0.997157
    outer loop
      vertex 8 -10 -9
      vertex 1 2 -10
      vertex 10 4 -10
    endloop
  endfacet
  facet normal 0.181818 0.545455 -0.818182
    outer loop
      vertex 1 7 -10
      vertex 1 10 -8
      vertex 10 4 -10
    endloop
  endfacet
  facet normal 0 0 -1
    outer loop
      vertex 1 2 -10
      vertex 1 7 -10
      vertex 10 4 -10
    endloop
  endfacet
  facet normal -0.242424 -0.969697 -0.030303
    outer loop
      vertex 8 -10 -9
      vertex -9 -6 -1
      vertex -8 -6 -9
    endloop
  endfacet
  facet normal -0.966523 0.172593 -0.189853
    outer loop
      vertex -9 6 7
      vertex -8 5 1
      vertex -8 -6 -9
    endloop
  endfacet
  facet normal -0.988903 0.0824086 -0.123613
    outer loop
      vertex -9 -6 -1
      vertex -9 6 7
      vertex -8 -6 -9
    endloop
  endfacet
  facet normal -0.0242678 -0.0970714 -0.994982
    outer loop
      vertex 1 2 -10
      vertex 8 -10 -9
      vertex -8 -6 -9
    endloop
  endfacet
  facet normal -0.911755 0.276289 -0.303918
    outer loop
      vertex -8 5 1
      vertex -6 5 -5
      vertex -8 -6 -9
    endloop
  endfacet
  facet normal -0.110432 0 -0.993884
    outer loop
      vertex 1 7 -10
      vertex 1 2 -10
      vertex -8 -6 -9
    endloop
  endfacet
  facet normal -0.607852 0.366641 -0.704337
    outer loop
      vertex -6 5 -5
      vertex 1 7 -10
      vertex -8 -6 -9
    endloop
  endfacet
  facet normal 0.201605 -0.387702 0.899468
    outer loop
      vertex -6 -6 10
      vertex 8 -8 6
      vertex 10 0 9
    endloop
  endfacet
  facet normal 0.0389568 0.0623309 0.997295
    outer loop
      vertex 2 5 9
      vertex -6 -6 10
      vertex 10 0 9
    endloop
  endfacet
  facet normal 0.768221 -0.384111 0.512148
    outer loop
      vertex 8 -8 6
      vertex 9 -10 3
      vertex 10 0 9
    endloop
  endfacet
  facet normal 0.385744 0.617191 0.685767
    outer loop
      vertex 10 10 0
      vertex 2 5 9
      vertex 10 0 9
    endloop
  endfacet
  facet normal 1 0 0
    outer loop
      vertex 10 6 0
      vertex 10 10 0
      vertex 10 0 9
    endloop
  endfacet
  facet normal 0.995909 -0.0884218 -0.0186151
    outer loop
      vertex 9 -10 3
      vertex 10 4 -10
      vertex 10 0 9
    endloop
  endfacet
  facet normal 1 0 0
    outer loop
      vertex 10 4 -10
      vertex 10 6 0
      vertex 10 0 9
    endloop
  endfacet
endsolid convex_hull
