solid convex_hull
  facet normal -0.944567 0.0539753 -0.323852
    outer loop
      vertex -9 -1 -3
      vertex -9 5 -2
      vertex -7 -8 -10
    endloop
  endfacet
  facet normal -0.469437 0.409253 -0.782395
    outer loop
      vertex -9 5 -2
      vertex -4 5 -5
      vertex -7 -8 -10
    endloop
  endfacet
  facet normal 0.356313 -0.554265 -0.752217
    outer loop
      vertex -2 -10 -10
      vertex 9 -7 -7
      vertex 8 -9 -6
    endloop
  endfacet
  facet normal 0.878459 -0.473016 -0.0675737
    outer loop
      vertex 9 -7 -7
      vertex 10 -6 -1
      vertex 8 -9 -6
    endloop
  endfacet
  facet normal 0 0 -1
    outer loop
      vertex -2 -10 -10
      vertex -7 -8 -10
      vertex -3 -9 -10
    endloop
  endfacet
  facet normal -0.966762 0.0420331 -0.252199
    outer loop
      vertex -9 5 -2
      vertex -9 -1 -3
      vertex -10 -6 0
    endloop
  endfacet
  facet normal -0.956741 0.0170847 -0.290439
    outer loop
      vertex -9 -1 -3
      vertex -7 -8 -10
      vertex -10 -6 0
    endloop
  endfacet
  facet normal 0.534522 -0.801784 0.267261
    outer loop
      vertex 8 -9 -6
      vertex 10 -6 -1
      vertex 6 -5 10
    endloop
  endfacet
  facet normal -0.240966 0.883541 -0.40161
    outer loop
      vertex -4 5 -5
      vertex -9 5 -2
      vertex 1 10 3
    endloop
  endfacet
  facet normal -0.370284 -0.92571 -0.0771425
    outer loop
      vertex -7 -8 -10
      vertex -2 -10 -10
      vertex -7 -9 2
    endloop
  endfacet
  facet normal 0.0567262 -0.992708 0.106362
    outer loop
      vertex -2 -10 -10
      vertex 8 -9 -6
      vertex -7 -9 2
    endloop
  endfacet
  facet normal -0.685367 -0.725683 -0.0604735
    outer loop
      vertex -10 -6 0
      vertex -7 -8 -10
      vertex -7 -9 2
    endloop
  endfacet
  facet normal 0.0944253 -0.979662 0.177047
    outer loop
      vertex -7 -9 2
      vertex 8 -9 -6
      vertex -6 -8 7
    endloop
  endfacet
  facet normal -0.764866 -0.584898 0.269953
    outer loop
      vertex -10 -6 0
      vertex -7 -9 2
      vertex -6 -8 7
    endloop
  endfacet
  facet normal -0.907406 -0.279202 0.314102
    outer loop
      vertex -10 3 8
      vertex -10 -6 0
      vertex -9 2 10
    endloop
  endfacet
  facet normal -0.848593 -0.368468 0.379634
    outer loop
      vertex -10 -6 0
      vertex -6 -8 7
      vertex -9 2 10
    endloop
  endfacet
  facet normal -0.225953 0.883272 -0.410824
    outer loop
      vertex -4 5 -5
      vertex 1 10 3
      vertex 2 7 -4
    endloop
  endfacet
  facet normal 0.264906 -0.927173 0.264906
    outer loop
      vertex 8 -9 -6
      vertex 6 -5 10
      vertex 0 -7 9
    endloop
  endfacet
  facet normal 0.101448 -0.977592 0.184451
    outer loop
      vertex -6 -8 7
      vertex 8 -9 -6
      vertex 0 -7 9
    endloop
  endfacet
  facet normal -0.0947504 -0.203037 0.974576
    outer loop
      vertex 6 -5 10
      vertex -9 2 10
      vertex 0 -7 9
    endloop
  endfacet
  facet normal -0.244509 -0.34519 0.906123
    outer loop
      vertex -9 2 10
      vertex -6 -8 7
      vertex 0 -7 9
    endloop
  endfacet
  facet normal 0.45492 0.255893 0.852975
    outer loop
      vertex 7 10 6
      vertex 7 0 9
      vertex 10 -2 8
    endloop
  endfacet
  facet normal 0.378517 0.108148 0.919255
    outer loop
      vertex 7 0 9
      vertex 6 -5 10
      vertex 10 -2 8
    endloop
  endfacet
  facet normal 0.664171 -0.683148 0.303621
    outer loop
      vertex 6 -5 10
      vertex 10 -6 -1
      vertex 10 -2 8
    endloop
  endfacet
  facet normal -0.377971 0.407046 -0.831536
    outer loop
      vertex -7 -8 -10
      vertex -4 5 -5
      vertex 7 5 -10
    endloop
  endfacet
  facet normal 0.304792 -0.182875 -0.934697
    outer loop
      vertex 9 -7 -7
      vertex -2 -10 -10
      vertex 7 5 -10
    endloop
  endfacet
  facet normal 0.976251 0.11715 -0.182234
    outer loop
      vertex 10 -6 -1
      vertex 9 -7 -7
      vertex 7 5 -10
    endloop
  endfacet
  facet normal 0 0 -1
    outer loop
      vertex -3 -9 -10
      vertex -7 -8 -10
      vertex 7 5 -10
    endloop
  endfacet
  facet normal 0 0 -1
    outer loop
      vertex -2 -10 -10
      vertex -3 -9 -10
      vertex 7 5 -10
    endloop
  endfacet
  facet normal 0.147506 0.944039 -0.295012
    outer loop
      vertex 1 10 3
      vertex 7 10 6
      vertex 7 5 -10
    endloop
  endfacet
  facet normal -0.210119 0.861489 -0.462262
    outer loop
      vertex -4 5 -5
      vertex 2 7 -4
      vertex 7 5 -10
    endloop
  endfacet
  facet normal -0.124878 0.905366 -0.405854
    outer loop
      vertex 2 7 -4
      vertex 1 10 3
      vertex 7 5 -10
    endloop
  endfacet
  facet normal 0.976877 0.195375 -0.0868335
    outer loop
      vertex 10 -2 8
      vertex 10 -6 -1
      vertex 7 5 -10
    endloop
  endfacet
  facet normal 0.97038 0.230585 -0.0720579
    outer loop
      vertex 7 10 6
      vertex 10 -2 8
      vertex 7 5 -10
    endloop
  endfacet
  facet normal 0.188144 0.282216 0.940721
    outer loop
      vertex 7 0 9
      vertex 7 10 6
      vertex -10 8 10
    endloop
  endfacet
  facet normal -0.992318 0.0719071 -0.10067
    outer loop
      vertex -9 5 -2
      vertex -10 -6 0
      vertex -10 8 10
    endloop
  endfacet
  facet normal -1 0 0
    outer loop
      vertex -10 -6 0
      vertex -10 3 8
      vertex -10 8 10
    endloop
  endfacet
  facet normal 0.136472 0.167966 0.976301
    outer loop
      vertex 6 -5 10
      vertex 7 0 9
      vertex -10 8 10
    endloop
  endfacet
  facet normal -0.327544 0.909843 -0.254756
    outer loop
      vertex 1 10 3
      vertex -9 5 -2
      vertex -10 8 10
    endloop
  endfacet
  facet normal -0.0787499 0.984374 0.1575
    outer loop
      vertex 7 10 6
      vertex 1 10 3
      vertex -10 8 10
    endloop
  endfacet
  facet normal -0.912343 -0.152057 0.380143
    outer loop
      vertex -10 3 8
      vertex -9 2 10
      vertex -10 8 10
    endloop
  endfacet
  facet normal 0 0 1
    outer loop
      vertex -9 2 10
      vertex 6 -5 10
      vertex -10 8 10
    endloop
  endfacet
endsolid convex_hull
