solid convex_hull
  facet normal 1 0 0
    outer loop
      vertex 10 6 1
      vertex 10 -9 -10
      vertex 10 2 -5
    endloop
  endfacet
  facet normal -1 0 0
    outer loop
      vertex -10 -7 -6
      vertex -10 2 1
      vertex -10 9 3
    endloop
  endfacet
  facet normal -1 0 0
    outer loop
      vertex -10 2 1
      vertex -10 -7 -6
      vertex -10 -7 8
    endloop
  endfacet
  facet normal -1 0 0
    outer loop
      vertex -10 9 3
      vertex -10 2 1
      vertex -10 -7 8
    endloop
  endfacet
  facet normal 0 0 -1
    outer loop
      vertex -6 3 -10
      vertex 10 -9 -10
      vertex -4 0 -10
    endloop
  endfacet
  facet normal 1 0 0
    outer loop
      vertex 10 2 -5
      vertex 10 -9 -10
      vertex 10 2 -7
    endloop
  endfacet
  facet normal 1 0 0
    outer loop
      vertex 10 6 1
      vertex 10 2 -5
      vertex 10 2 -7
    endloop
  endfacet
  facet normal 1 0 0
    outer loop
      vertex 10 -9 -10
      vertex 10 6 1
      vertex 10 1 3
    endloop
  endfacet
  facet normal 1 0 0
    outer loop
      vertex 10 6 1
      vertex 10 2 -7
      vertex 10 3 -6
    endloop
  endfacet
  facet normal 0.965609 0.0965609 0.241402
    outer loop
      vertex 10 1 3
      vertex 10 6 1
      vertex 9 -4 9
    endloop
  endfacet
  facet normal -0.141069 0.987484 0.0705346
    outer loop
      vertex -9 10 -9
      vertex -10 9 3
      vertex -7 9 9
    endloop
  endfacet
  facet normal 0 0 1
    outer loop
      vertex -9 -4 10
      vertex 2 -7 10
      vertex -4 -1 10
    endloop
  endfacet
  facet normal 0.775388 0.166155 -0.609234
    outer loop
      vertex 10 2 -7
      vertex 10 -9 -10
      vertex 8 4 -9
    endloop
  endfacet
  facet normal 0.724286 0.63375 -0.271607
    outer loop
      vertex 10 6 1
      vertex 10 3 -6
      vertex 8 4 -9
    endloop
  endfacet
  facet normal 0.816497 0.408248 -0.408248
    outer loop
      vertex 10 3 -6
      vertex 10 2 -7
      vertex 8 4 -9
    endloop
  endfacet
  facet normal 0.288749 0.818123 -0.497291
    outer loop
      vertex -9 10 -9
      vertex -1 9 -6
      vertex 8 4 -9
    endloop
  endfacet
  facet normal 0.534522 0.801784 -0.267261
    outer loop
      vertex 7 8 1
      vertex 10 6 1
      vertex 8 4 -9
    endloop
  endfacet
  facet normal 0 0 1
    outer loop
      vertex -4 -1 10
      vertex 2 -7 10
      vertex 8 -4 10
    endloop
  endfacet
  facet normal -0.0319765 0.127906 -0.991271
    outer loop
      vertex -6 3 -10
      vertex -9 10 -9
      vertex -2 4 -10
    endloop
  endfacet
  facet normal 0 0 -1
    outer loop
      vertex 10 -9 -10
      vertex -6 3 -10
      vertex -2 4 -10
    endloop
  endfacet
  facet normal 0.0957704 0.27135 -0.957704
    outer loop
      vertex -9 10 -9
      vertex 8 4 -9
      vertex -2 4 -10
    endloop
  endfacet
  facet normal -0.0613832 0.0859365 0.994408
    outer loop
      vertex -7 9 9
      vertex -9 -4 10
      vertex -2 1 10
    endloop
  endfacet
  facet normal 0 0 1
    outer loop
      vertex -9 -4 10
      vertex -4 -1 10
      vertex -2 1 10
    endloop
  endfacet
  facet normal 0.0890871 0.178174 0.979958
    outer loop
      vertex 8 -4 10
      vertex -7 9 9
      vertex -2 1 10
    endloop
  endfacet
  facet normal 0 0 1
    outer loop
      vertex -4 -1 10
      vertex 8 -4 10
      vertex -2 1 10
    endloop
  endfacet
  facet normal 0 0 -1
    outer loop
      vertex 10 -9 -10
      vertex -2 4 -10
      vertex 5 0 -10
    endloop
  endfacet
  facet normal 0.624695 -0.468521 0.624695
    outer loop
      vertex 9 -4 9
      vertex 8 -4 10
      vertex 9 -8 6
    endloop
  endfacet
  facet normal 0.35218 -0.616316 0.704361
    outer loop
      vertex 8 -4 10
      vertex 7 -8 7
      vertex 9 -8 6
    endloop
  endfacet
  facet normal 1 0 0
    outer loop
      vertex 10 -9 -10
      vertex 10 1 3
      vertex 10 0 3
    endloop
  endfacet
  facet normal 0.986394 0 0.164399
    outer loop
      vertex 10 1 3
      vertex 9 -4 9
      vertex 10 0 3
    endloop
  endfacet
  facet normal 0.990492 -0.082541 0.110055
    outer loop
      vertex 9 -4 9
      vertex 9 -8 6
      vertex 10 0 3
    endloop
  endfacet
  facet normal 0.846261 0.278647 0.454091
    outer loop
      vertex 9 -4 9
      vertex 10 6 1
      vertex 6 10 6
    endloop
  endfacet
  facet normal -0.0622573 0.996116 0.0622573
    outer loop
      vertex -9 10 -9
      vertex -7 9 9
      vertex 6 10 6
    endloop
  endfacet
  facet normal 0.676716 0.290021 0.676716
    outer loop
      vertex 8 -4 10
      vertex 9 -4 9
      vertex 6 10 6
    endloop
  endfacet
  facet normal 0.193255 0.294968 0.93576
    outer loop
      vertex -7 9 9
      vertex 8 -4 10
      vertex 6 10 6
    endloop
  endfacet
  facet normal -0.121705 -0.985809 -0.11562
    outer loop
      vertex -10 -7 -6
      vertex 10 -9 -10
      vertex 1 -10 8
    endloop
  endfacet
  facet normal -0.263117 -0.964764 0
    outer loop
      vertex -10 -7 8
      vertex -10 -7 -6
      vertex 1 -10 8
    endloop
  endfacet
  facet normal 0.298142 -0.596285 0.745356
    outer loop
      vertex 8 -4 10
      vertex 2 -7 10
      vertex 1 -10 8
    endloop
  endfacet
  facet normal 0.3253 -0.61807 0.71566
    outer loop
      vertex 7 -8 7
      vertex 8 -4 10
      vertex 1 -10 8
    endloop
  endfacet
  facet normal 0.333333 -0.666667 0.666667
    outer loop
      vertex 9 -8 6
      vertex 7 -8 7
      vertex 1 -10 8
    endloop
  endfacet
  facet normal 0 0 1
    outer loop
      vertex 2 -7 10
      vertex -9 -4 10
      vertex -8 -7 10
    endloop
  endfacet
  facet normal -0.688247 -0.229416 0.688247
    outer loop
      vertex -9 -4 10
      vertex -10 -7 8
      vertex -8 -7 10
    endloop
  endfacet
  facet normal 0 -0.5547 0.83205
    outer loop
      vertex 1 -10 8
      vertex 2 -7 10
      vertex -8 -7 10
    endloop
  endfacet
  facet normal -0.254457 -0.933008 0.254457
    outer loop
      vertex -10 -7 8
      vertex 1 -10 8
      vertex -8 -7 10
    endloop
  endfacet
  facet normal 1 0 0
    outer loop
      vertex 10 -9 -10
      vertex 10 0 3
      vertex 10 -9 -8
    endloop
  endfacet
  facet normal 0.992449 -0.0949299 0.0776699
    outer loop
      vertex 10 0 3
      vertex 9 -8 6
      vertex 10 -9 -8
    endloop
  endfacet
  facet normal 0.110432 -0.993884 0
    outer loop
      vertex 1 -10 8
      vertex 10 -9 -10
      vertex 10 -9 -8
    endloop
  endfacet
  facet normal 0.262111 -0.961074 0.0873704
    outer loop
      vertex 9 -8 6
      vertex 1 -10 8
      vertex 10 -9 -8
    endloop
  endfacet
  facet normal -0.849837 -0.065372 0.522976
    outer loop
      vertex -10 -7 8
      vertex -9 -4 10
      vertex -10 1 9
    endloop
  endfacet
  facet normal -1 0 0
    outer loop
      vertex -10 9 3
      vertex -10 -7 8
      vertex -10 1 9
    endloop
  endfacet
  facet normal -0.326056 0.122271 0.93741
    outer loop
      vertex -9 -4 10
      vertex -7 9 9
      vertex -10 1 9
    endloop
  endfacet
  facet normal -0.847998 0.317999 0.423999
    outer loop
      vertex -7 9 9
      vertex -10 9 3
      vertex -10 1 9
    endloop
  endfacet
  facet normal 0.254254 0.113002 -0.960513
    outer loop
      vertex 8 4 -9
      vertex 10 -9 -10
      vertex 6 0 -10
    endloop
  endfacet
  facet normal 0.09759 0.19518 -0.9759
    outer loop
      vertex -2 4 -10
      vertex 8 4 -9
      vertex 6 0 -10
    endloop
  endfacet
  facet normal 0 0 -1
    outer loop
      vertex 10 -9 -10
      vertex 5 0 -10
      vertex 6 0 -10
    endloop
  endfacet
  facet normal 0 0 -1
    outer loop
      vertex 5 0 -10
      vertex -2 4 -10
      vertex 6 0 -10
    endloop
  endfacet
  facet normal 0.199796 0.956168 -0.214067
    outer loop
      vertex -1 9 -6
      vertex -9 10 -9
      vertex 6 10 5
    endloop
  endfacet
  facet normal 0.534522 0.801784 -0.267261
    outer loop
      vertex 10 6 1
      vertex 7 8 1
      vertex 6 10 5
    endloop
  endfacet
  facet normal 0.376851 0.869657 -0.318874
    outer loop
      vertex 8 4 -9
      vertex -1 9 -6
      vertex 6 10 5
    endloop
  endfacet
  facet normal 0.534522 0.801784 -0.267261
    outer loop
      vertex 7 8 1
      vertex 8 4 -9
      vertex 6 10 5
    endloop
  endfacet
  facet normal 0 1 0
    outer loop
      vertex -9 10 -9
      vertex 6 10 6
      vertex 6 10 5
    endloop
  endfacet
  facet normal 0.707107 0.707107 0
    outer loop
      vertex 6 10 6
      vertex 10 6 1
      vertex 6 10 5
    endloop
  endfacet
  facet normal 0 0 -1
    outer loop
      vertex -4 0 -10
      vertex 10 -9 -10
      vertex 2 -6 -10
    endloop
  endfacet
  facet normal -0.132973 -0.975133 -0.177297
    outer loop
      vertex 10 -9 -10
      vertex -10 -7 -6
      vertex -6 -7 -9
    endloop
  endfacet
  facet normal -0.14762 -0.0984136 -0.984136
    outer loop
      vertex -6 3 -10
      vertex -4 0 -10
      vertex -6 -7 -9
    endloop
  endfacet
  facet normal -0.090577 -0.241539 -0.966155
    outer loop
      vertex 2 -6 -10
      vertex 10 -9 -10
      vertex -6 -7 -9
    endloop
  endfacet
  facet normal -0.109764 -0.109764 -0.987878
    outer loop
      vertex -4 0 -10
      vertex 2 -6 -10
      vertex -6 -7 -9
    endloop
  endfacet
  facet normal -0.255789 0.028421 -0.966315
    outer loop
      vertex -9 10 -9
      vertex -6 3 -10
      vertex -10 1 -9
    endloop
  endfacet
  facet normal -0.991201 0.110133 -0.0734223
    outer loop
      vertex -10 9 3
      vertex -9 10 -9
      vertex -10 1 -9
    endloop
  endfacet
  facet normal -1 0 0
    outer loop
      vertex -10 -7 -6
      vertex -10 9 3
      vertex -10 1 -9
    endloop
  endfacet
  facet normal -0.19518 -0.09759 -0.9759
    outer loop
      vertex -6 3 -10
      vertex -6 -7 -9
      vertex -10 1 -9
    endloop
  endfacet
  facet normal -0.574696 -0.287348 -0.766261
    outer loop
      vertex -6 -7 -9
      vertex -10 -7 -6
      vertex -10 1 -9
    endloop
  endfacet
endsolid convex_hull
