solid convex_hull
  facet normal -0.983603 -0.0464694 0.17426
    outer loop
      vertex -10 10 -5
      vertex -10 -5 -9
      vertex -7 -1 9
    endloop
  endfacet
  facet normal -0.884195 -0.402625 0.236838
    outer loop
      vertex -10 -5 -9
      vertex -4 -7 10
      vertex -7 -1 9
    endloop
  endfacet
  facet normal -0.108591 -0.989389 0.0965258
    outer loop
      vertex 8 -9 3
      vertex -4 -7 10
      vertex 10 -10 -5
    endloop
  endfacet
  facet normal -0.237308 -0.971052 -0.0272767
    outer loop
      vertex -4 -7 10
      vertex -10 -5 -9
      vertex 10 -10 -5
    endloop
  endfacet
  facet normal 0.191693 -0.0182565 -0.981285
    outer loop
      vertex -10 -5 -9
      vertex 1 3 -7
      vertex 10 -10 -5
    endloop
  endfacet
  facet normal -0.127775 0.255551 -0.958315
    outer loop
      vertex -10 -5 -9
      vertex -10 10 -5
      vertex -1 7 -7
    endloop
  endfacet
  facet normal 0.131876 0.065938 -0.989071
    outer loop
      vertex 1 3 -7
      vertex -10 -5 -9
      vertex -1 7 -7
    endloop
  endfacet
  facet normal 0.112474 0.762321 -0.637351
    outer loop
      vertex -1 7 -7
      vertex -10 10 -5
      vertex 7 10 -2
    endloop
  endfacet
  facet normal 0.453609 0.226805 -0.861858
    outer loop
      vertex 1 3 -7
      vertex -1 7 -7
      vertex 7 10 -2
    endloop
  endfacet
  facet normal -0.947758 0.11847 0.296174
    outer loop
      vertex -10 10 -5
      vertex -7 -1 9
      vertex -8 6 3
    endloop
  endfacet
  facet normal -0.0815214 0.883149 0.461955
    outer loop
      vertex 7 10 -2
      vertex -10 10 -5
      vertex -8 6 3
    endloop
  endfacet
  facet normal 0.0758585 0.655141 0.751688
    outer loop
      vertex -7 -1 9
      vertex 7 10 -2
      vertex -8 6 3
    endloop
  endfacet
  facet normal 0 -0.961524 0.274721
    outer loop
      vertex -4 -7 10
      vertex 8 -9 3
      vertex 3 -7 10
    endloop
  endfacet
  facet normal 0 0.164399 0.986394
    outer loop
      vertex -7 -1 9
      vertex -4 -7 10
      vertex 3 -7 10
    endloop
  endfacet
  facet normal 0.823937 0.184378 0.535847
    outer loop
      vertex 8 -9 3
      vertex 7 10 -2
      vertex 3 -7 10
    endloop
  endfacet
  facet normal 0.232341 0.523823 0.819529
    outer loop
      vertex 7 10 -2
      vertex -7 -1 9
      vertex 3 -7 10
    endloop
  endfacet
  facet normal 0.970143 0 0.242536
    outer loop
      vertex 8 -9 3
      vertex 10 -10 -5
      vertex 10 -9 -5
    endloop
  endfacet
  facet normal 0.21693 0 -0.976187
    outer loop
      vertex 10 -10 -5
      vertex 1 3 -7
      vertex 10 -9 -5
    endloop
  endfacet
  facet normal 0.963803 0.114135 0.240951
    outer loop
      vertex 7 10 -2
      vertex 8 -9 3
      vertex 10 -9 -5
    endloop
  endfacet
  facet normal 0.469995 0.209592 -0.857424
    outer loop
      vertex 1 3 -7
      vertex 7 10 -2
      vertex 10 -9 -5
    endloop
  endfacet
endsolid convex_hull
