solid convex_hull
  facet normal -0.527046 0.737865 0.421637
    outer loop
      vertex -3 9 4
      vertex -8 6 3
      vertex -8 2 10
    endloop
  endfacet
  facet normal 0.382684 0.85368 -0.353247
    outer loop
      vertex 7 7 -4
      vertex 2 8 -7
      vertex 4 10 0
    endloop
  endfacet
  facet normal 0.707107 0.707107 0
    outer loop
      vertex 7 7 -4
      vertex 4 10 0
      vertex 5 9 0
    endloop
  endfacet
  facet normal 0.429772 0.778962 -0.456633
    outer loop
      vertex 2 8 -7
      vertex 7 7 -4
      vertex 10 3 -8
    endloop
  endfacet
  facet normal 0.202577 -0.0168814 -0.979121
    outer loop
      vertex 9 -9 -8
      vertex 0 -1 -10
      vertex 10 3 -8
    endloop
  endfacet
  facet normal -0.047023 -0.893438 -0.446719
    outer loop
      vertex -10 -8 -8
      vertex 9 -9 -8
      vertex 9 -10 -6
    endloop
  endfacet
  facet normal -0.953479 0.261739 0.149565
    outer loop
      vertex -8 2 10
      vertex -8 6 3
      vertex -10 -3 6
    endloop
  endfacet
  facet normal 0.0707649 0.303278 -0.950271
    outer loop
      vertex 2 8 -7
      vertex 10 3 -8
      vertex -4 0 -10
    endloop
  endfacet
  facet normal 0.0733236 0.293294 -0.953206
    outer loop
      vertex 10 3 -8
      vertex 0 -1 -10
      vertex -4 0 -10
    endloop
  endfacet
  facet normal 0.0938647 -0.140797 -0.985579
    outer loop
      vertex 0 -1 -10
      vertex 9 -9 -8
      vertex -6 -5 -10
    endloop
  endfacet
  facet normal -0.0278181 -0.528543 -0.848451
    outer loop
      vertex 9 -9 -8
      vertex -10 -8 -8
      vertex -6 -5 -10
    endloop
  endfacet
  facet normal 0 0 -1
    outer loop
      vertex -4 0 -10
      vertex 0 -1 -10
      vertex -6 -5 -10
    endloop
  endfacet
  facet normal 0 0 1
    outer loop
      vertex -3 -2 10
      vertex -8 2 10
      vertex -9 -7 10
    endloop
  endfacet
  facet normal -0.981401 -0.180784 0.0645659
    outer loop
      vertex -10 -3 6
      vertex -10 -8 -8
      vertex -9 -7 10
    endloop
  endfacet
  facet normal -0.935459 0.10394 0.337805
    outer loop
      vertex -8 2 10
      vertex -10 -3 6
      vertex -9 -7 10
    endloop
  endfacet
  facet normal 0.123724 -0.0706996 0.989795
    outer loop
      vertex 9 -9 8
      vertex -3 -2 10
      vertex 1 -9 9
    endloop
  endfacet
  facet normal 0.0800128 -0.0960154 0.992159
    outer loop
      vertex -3 -2 10
      vertex -9 -7 10
      vertex 1 -9 9
    endloop
  endfacet
  facet normal -0.533863 0.785093 0.314037
    outer loop
      vertex -8 6 3
      vertex -3 9 4
      vertex -8 10 -7
    endloop
  endfacet
  facet normal 0.185892 0.929458 -0.318671
    outer loop
      vertex 4 10 0
      vertex 2 8 -7
      vertex -8 10 -7
    endloop
  endfacet
  facet normal -0.071436 0.989899 0.122462
    outer loop
      vertex -3 9 4
      vertex 4 10 0
      vertex -8 10 -7
    endloop
  endfacet
  facet normal -0.963918 0.247159 0.0988634
    outer loop
      vertex -10 -3 6
      vertex -8 6 3
      vertex -8 10 -7
    endloop
  endfacet
  facet normal -0.992833 0.112548 -0.0401957
    outer loop
      vertex -10 -8 -8
      vertex -10 -3 6
      vertex -8 10 -7
    endloop
  endfacet
  facet normal 0.0618853 0.309426 -0.948908
    outer loop
      vertex 2 8 -7
      vertex -4 0 -10
      vertex -8 10 -7
    endloop
  endfacet
  facet normal -0.505982 0.103791 -0.856277
    outer loop
      vertex -6 -5 -10
      vertex -10 -8 -8
      vertex -8 10 -7
    endloop
  endfacet
  facet normal -0.347711 0.139084 -0.927229
    outer loop
      vertex -4 0 -10
      vertex -6 -5 -10
      vertex -8 10 -7
    endloop
  endfacet
  facet normal 0.813116 0.569181 0.121967
    outer loop
      vertex 7 7 -4
      vertex 5 9 0
      vertex 8 3 8
    endloop
  endfacet
  facet normal 0.988903 0.0824086 0.123613
    outer loop
      vertex 9 -9 8
      vertex 10 3 -8
      vertex 8 3 8
    endloop
  endfacet
  facet normal 0.843274 0.527046 0.105409
    outer loop
      vertex 10 3 -8
      vertex 7 7 -4
      vertex 8 3 8
    endloop
  endfacet
  facet normal 0.157752 -0.0116853 0.98741
    outer loop
      vertex -3 -2 10
      vertex 9 -9 8
      vertex 4 8 9
    endloop
  endfacet
  facet normal 0.0511101 0.0638877 0.996647
    outer loop
      vertex -8 2 10
      vertex -3 -2 10
      vertex 4 8 9
    endloop
  endfacet
  facet normal -0.319357 0.737825 0.594665
    outer loop
      vertex -3 9 4
      vertex -8 2 10
      vertex 4 8 9
    endloop
  endfacet
  facet normal -0.0154932 0.97607 0.216904
    outer loop
      vertex 4 10 0
      vertex -3 9 4
      vertex 4 8 9
    endloop
  endfacet
  facet normal 0.698535 0.698535 0.15523
    outer loop
      vertex 5 9 0
      vertex 4 10 0
      vertex 4 8 9
    endloop
  endfacet
  facet normal 0.268732 0.0223943 0.962955
    outer loop
      vertex 9 -9 8
      vertex 8 3 8
      vertex 4 8 9
    endloop
  endfacet
  facet normal 0.786354 0.598312 0.153852
    outer loop
      vertex 8 3 8
      vertex 5 9 0
      vertex 4 8 9
    endloop
  endfacet
  facet normal 0 -1 0
    outer loop
      vertex 9 -10 -6
      vertex -2 -10 0
      vertex -3 -10 -4
    endloop
  endfacet
  facet normal -0.0600571 -0.930885 -0.360342
    outer loop
      vertex -10 -8 -8
      vertex 9 -10 -6
      vertex -3 -10 -4
    endloop
  endfacet
  facet normal 0.997005 0.0173896 0.075355
    outer loop
      vertex 10 3 -8
      vertex 9 -9 8
      vertex 10 -10 -5
    endloop
  endfacet
  facet normal 0.937678 -0.0781398 -0.338606
    outer loop
      vertex 9 -9 -8
      vertex 10 3 -8
      vertex 10 -10 -5
    endloop
  endfacet
  facet normal 0 -1 0
    outer loop
      vertex -2 -10 0
      vertex 9 -10 -6
      vertex 10 -10 -5
    endloop
  endfacet
  facet normal 0.408248 -0.816497 -0.408248
    outer loop
      vertex 9 -10 -6
      vertex 9 -9 -8
      vertex 10 -10 -5
    endloop
  endfacet
  facet normal -0.750275 -0.65649 0.0781536
    outer loop
      vertex -9 -7 10
      vertex -10 -8 -8
      vertex -7 -10 4
    endloop
  endfacet
  facet normal 0.0205455 -0.986186 0.164364
    outer loop
      vertex 9 -9 8
      vertex 1 -9 9
      vertex -7 -10 4
    endloop
  endfacet
  facet normal -0.140198 -0.903497 0.405016
    outer loop
      vertex 1 -9 9
      vertex -9 -7 10
      vertex -7 -10 4
    endloop
  endfacet
  facet normal 0 -1 0
    outer loop
      vertex -3 -10 -4
      vertex -2 -10 0
      vertex -7 -10 4
    endloop
  endfacet
  facet normal -0.215666 -0.970495 -0.107833
    outer loop
      vertex -10 -8 -8
      vertex -3 -10 -4
      vertex -7 -10 4
    endloop
  endfacet
  facet normal 0.0422792 -0.995909 0.0798606
    outer loop
      vertex 10 -10 -5
      vertex 9 -9 8
      vertex -7 -10 4
    endloop
  endfacet
  facet normal 0 -1 0
    outer loop
      vertex -2 -10 0
      vertex 10 -10 -5
      vertex -7 -10 4
    endloop
  endfacet
endsolid convex_hull
